<?xml version="1.0" standalone="no"?><!DOCTYPE svg PUBLIC "-//W3C//DTD SVG 1.1//EN" "http://www.w3.org/Graphics/SVG/1.1/DTD/svg11.dtd"><svg t="1778824834650" class="icon" viewBox="0 0 1024 1024" version="1.1" xmlns="http://www.w3.org/2000/svg" p-id="5510" xmlns:xlink="http://www.w3.org/1999/xlink" width="200" height="200"><path d="M334.58 302c-116 0-210 94-210 210s94 210 210 210 210-94 210-210-94.02-210-210-210z m0 355a145 145 0 1 1 145-145 145 145 0 0 1-145 145z" fill="#0081FF" p-id="5511"></path><path d="M534.05 446.16C506.51 362.67 428 302.34 335.37 302h-1.68C241 302.39 162.44 362.87 135 446.51a2.47 2.47 0 0 0-0.1 0.29l-0.06 0.19a209.88 209.88 0 0 0-10.26 65q0 6.54 0.39 13c0.06 1 0.14 2 0.21 3s0.16 2 0.25 3l0.06 0.65c0 0.28 0.05 0.57 0.08 0.85 0.06 0.69 0.13 1.37 0.21 2.06 0.11 1 0.22 2 0.34 3 0 0.21 0 0.42 0.08 0.63 0.13 1 0.26 2 0.4 3a2.51 2.51 0 0 0 0 0.27c0.11 0.86 0.24 1.7 0.37 2.55s0.28 1.84 0.44 2.76 0.27 1.62 0.42 2.42c0.11 0.64 0.23 1.28 0.35 1.92 0.19 1 0.38 2 0.59 3q0.23 1.15 0.48 2.31c0.22 1 0.44 2 0.68 3.06s0.48 2 0.73 3 0.48 1.91 0.73 2.87c0.54 2.07 1.11 4.11 1.71 6.15 0.25 0.83 0.49 1.66 0.75 2.48 0.18 0.59 0.37 1.18 0.56 1.76 0.07 0.24 0.14 0.47 0.22 0.71 0.39 1.2 0.78 2.39 1.19 3.57l0.58 1.69c0.07 0.18 0.13 0.35 0.19 0.53s0.06 0.18 0.1 0.27c0.27 0.77 0.55 1.53 0.83 2.28 0.31 0.85 0.62 1.68 0.95 2.52a0.14 0.14 0 0 0 0 0.06l0.09 0.24q0.44 1.14 0.9 2.28t1 2.43v0.1c0.31 0.76 0.63 1.51 1 2.26 0.4 0.94 0.81 1.88 1.23 2.81s0.84 1.87 1.27 2.79 0.81 1.74 1.23 2.6c0.13 0.27 0.26 0.55 0.4 0.82 0.34 0.7 0.68 1.4 1 2.1 0.49 1 1 2 1.5 2.92s0.87 1.67 1.32 2.5 1 1.75 1.43 2.63q1.35 2.43 2.78 4.83l1.08 1.8 0.12 0.2 0.35 0.58 0.37 0.6c0.45 0.74 0.91 1.47 1.37 2.2q1.55 2.45 3.17 4.85l0.85 1.25c0.28 0.41 0.56 0.83 0.85 1.24 0.57 0.83 1.15 1.65 1.74 2.47s1.1 1.53 1.65 2.28a1.16 1.16 0 0 0 0.16 0.21q0.87 1.2 1.77 2.37c0.6 0.8 1.22 1.6 1.84 2.39s1.24 1.58 1.87 2.36c0.47 0.59 0.94 1.17 1.42 1.75l1.45 1.74c1 1.15 1.95 2.3 2.95 3.43 0.66 0.75 1.33 1.5 2 2.24l1 1.12 1 1.1c0.68 0.74 1.37 1.47 2.06 2.19s1.4 1.45 2.1 2.16l2.13 2.13c2.86 2.84 5.79 5.57 8.81 8.22l2.27 2q3.44 3 7 5.73c0.79 0.62 1.59 1.23 2.39 1.84l2.41 1.81a32.5 32.5 0 0 1 39-52c-0.56-0.41-1.12-0.82-1.67-1.25s-1-0.73-1.45-1.11l-0.45-0.35c-0.47-0.36-0.94-0.73-1.4-1.11-0.79-0.62-1.56-1.26-2.33-1.9-0.5-0.41-1-0.83-1.48-1.26q-2.09-1.78-4.1-3.65l-1.34-1.26-0.35-0.33-1.15-1.12c-0.56-0.54-1.12-1.09-1.67-1.65s-1-1-1.45-1.49-0.83-0.86-1.23-1.29q-0.39-0.4-0.75-0.81c-0.3-0.31-0.58-0.62-0.86-0.93s-0.43-0.47-0.63-0.7c-0.44-0.47-0.85-0.94-1.26-1.41l-0.88-1-1.35-1.59c-0.44-0.53-0.88-1.07-1.31-1.61s-0.66-0.81-1-1.21c-0.54-0.68-1.08-1.37-1.61-2.07-0.31-0.4-0.62-0.81-0.92-1.22s-0.61-0.82-0.9-1.23c0-0.05-0.09-0.11-0.14-0.17-0.49-0.68-1-1.37-1.46-2.06l-0.29-0.4c-0.79-1.15-1.57-2.3-2.34-3.47-0.39-0.6-0.78-1.2-1.16-1.81s-0.71-1.12-1.06-1.69-0.75-1.22-1.11-1.84-0.8-1.36-1.19-2-0.78-1.37-1.16-2.06-0.73-1.33-1.08-2c0-0.08-0.08-0.16-0.13-0.24-0.34-0.64-0.68-1.3-1-1.95s-0.71-1.41-1.06-2.12-0.59-1.21-0.87-1.82-0.56-1.2-0.83-1.8c-0.14-0.3-0.28-0.6-0.41-0.91q-0.92-2.06-1.77-4.14c-0.31-0.73-0.6-1.47-0.89-2.22-0.38-1-0.76-2-1.12-3q-0.47-1.26-0.9-2.52c-0.38-1.12-0.75-2.24-1.11-3.38-0.26-0.82-0.52-1.65-0.76-2.48s-0.45-1.54-0.67-2.32q-1.17-4.2-2.09-8.52a117.046 117.046 0 0 1-0.98-5.02c-0.12-0.65-0.24-1.3-0.34-2 0-0.14 0-0.29-0.07-0.44-0.12-0.7-0.22-1.4-0.32-2.1-0.16-1.07-0.3-2.15-0.43-3.23-0.09-0.7-0.17-1.41-0.24-2.11s-0.16-1.53-0.23-2.3l-0.15-1.65v-0.52c-0.1-1.32-0.18-2.63-0.24-4 0-0.66-0.06-1.33-0.08-2a0.57 0.57 0 0 1 0-0.13v-1.39-1.43-2.25A144.83 144.83 0 0 1 334.53 367h0.05a145 145 0 0 1 85.93 261.81 32.5 32.5 0 0 0 37.95 52.77l0.81-0.59 0.26-0.2a210.28 210.28 0 0 0 74.52-234.63z" fill="#3398FF" p-id="5512"></path><path d="M534.76 448.34l-0.38-1.19v-0.06c-27.27-84-106-144.75-199-145.08h-1.68c-92.7 0.38-171.27 60.87-198.7 144.53a2.47 2.47 0 0 0-0.1 0.29l-0.06 0.19a209.88 209.88 0 0 0-10.26 65q0 6.54 0.39 13c0.06 1 0.14 2 0.21 3s0.16 2 0.25 3l0.06 0.65c0 0.28 0.05 0.57 0.08 0.85 0.16 1.7 0.35 3.4 0.55 5.09 0.15 1.21 0.31 2.41 0.48 3.61 0.12 0.95 0.26 1.88 0.41 2.82s0.28 1.84 0.44 2.76 0.27 1.62 0.42 2.42c0.11 0.64 0.23 1.28 0.35 1.92q0.79 4.21 1.75 8.37a296.443 296.443 0 0 0 1.46 5.87c0.54 2.07 1.11 4.11 1.71 6.15 0.25 0.83 0.49 1.66 0.75 2.48 0.18 0.59 0.37 1.18 0.56 1.76 0.07 0.24 0.14 0.47 0.22 0.71 0.39 1.2 0.78 2.39 1.19 3.57l0.58 1.69c0.07 0.18 0.13 0.35 0.19 0.53s0.06 0.18 0.1 0.27c0.27 0.77 0.55 1.53 0.83 2.28 0.31 0.85 0.62 1.68 0.95 2.52a0.14 0.14 0 0 0 0 0.06q0.48 1.26 1 2.52t1 2.43v0.1c0.31 0.76 0.63 1.51 1 2.26 0.4 0.94 0.81 1.88 1.23 2.81s0.84 1.87 1.27 2.79 0.81 1.74 1.23 2.6c0.13 0.27 0.26 0.55 0.4 0.82 0.34 0.7 0.68 1.4 1 2.1 0.49 1 1 2 1.5 2.92s0.87 1.67 1.32 2.5 1 1.75 1.43 2.63q1.35 2.43 2.78 4.83l1.2 2 0.35 0.58 0.37 0.6c0.45 0.74 0.91 1.47 1.37 2.2q1.55 2.45 3.17 4.85l0.85 1.25c0.28 0.41 0.56 0.83 0.85 1.24 0.57 0.83 1.15 1.65 1.74 2.47s1.1 1.53 1.65 2.28a1.16 1.16 0 0 0 0.16 0.21q0.87 1.2 1.77 2.37c0.6 0.8 1.22 1.6 1.84 2.39s1.24 1.58 1.87 2.36c0.94 1.17 1.9 2.34 2.87 3.49s1.95 2.3 2.95 3.43c0.66 0.75 1.33 1.5 2 2.24l1 1.12 1 1.1c0.68 0.74 1.37 1.47 2.06 2.19s1.4 1.45 2.1 2.16l2.13 2.13c2.86 2.84 5.79 5.57 8.81 8.22l2.27 2q3.44 3 7 5.73c0.79 0.62 1.59 1.23 2.39 1.84l2.41 1.81a32.5 32.5 0 0 1 39-52c-0.56-0.41-1.12-0.82-1.67-1.25l-1.45-1.11-0.45-0.35c-0.47-0.36-0.93-0.73-1.4-1.11-0.79-0.62-1.56-1.26-2.33-1.9l-1.48-1.26q-4.47-3.82-8.61-8c-0.49-0.49-1-1-1.45-1.49l-1.23-1.29q-0.39-0.4-0.75-0.81-0.76-0.81-1.5-1.65c-0.43-0.46-0.84-0.93-1.26-1.41-0.76-0.86-1.5-1.73-2.23-2.61-0.77-0.93-1.54-1.87-2.29-2.82-0.54-0.68-1.08-1.38-1.61-2.07s-1.23-1.63-1.82-2.45c0-0.05-0.09-0.11-0.14-0.17-0.49-0.68-1-1.37-1.46-2.06l-0.29-0.4c-0.79-1.15-1.57-2.3-2.34-3.47-0.39-0.6-0.78-1.2-1.16-1.81s-0.71-1.12-1.06-1.69-0.75-1.22-1.11-1.84-0.8-1.36-1.19-2-0.78-1.37-1.16-2.06-0.73-1.33-1.08-2c0-0.08-0.08-0.16-0.13-0.24-0.34-0.64-0.68-1.29-1-1.95s-0.71-1.41-1.06-2.12c-0.59-1.2-1.16-2.42-1.71-3.64-0.14-0.3-0.28-0.61-0.41-0.91q-0.92-2.06-1.77-4.14c-0.31-0.74-0.6-1.48-0.89-2.22q-2.17-5.56-3.89-11.35c-0.23-0.77-0.45-1.54-0.67-2.32q-1.17-4.2-2.09-8.52c-0.13-0.58-0.25-1.17-0.37-1.76q-1.1-5.41-1.77-11c-0.09-0.7-0.17-1.4-0.24-2.11s-0.16-1.53-0.23-2.3l-0.15-1.65c-0.11-1.48-0.21-3-0.28-4.48q-0.06-1.07-0.09-2.13v-1.39-1.43-2.25A144.83 144.83 0 0 1 334.53 367h0.05a145.07 145.07 0 0 1 138 100.45A32.53 32.53 0 0 0 522.43 484l0.26-0.18c0.19-0.13 0.37-0.27 0.55-0.41l0.26-0.2a32.52 32.52 0 0 0 11.26-34.87z" fill="#59ACFF" p-id="5513"></path><path d="M335.37 302h-1.68C241 302.39 162.43 362.88 135 446.54a2.47 2.47 0 0 0-0.1 0.29l-0.06 0.19a209.88 209.88 0 0 0-10.26 65q0 6.54 0.39 13 0.19 3 0.46 6l0.06 0.65q0.27 3 0.63 5.94a212.64 212.64 0 0 0 3.85 21.9c0.24 1 0.48 2 0.73 3 0.75 3 1.56 6 2.44 9q0.74 2.49 1.53 5c0.39 1.2 0.78 2.39 1.19 3.57 0.25 0.74 0.51 1.48 0.77 2.22 1.23 3.46 2.54 6.86 3.94 10.23 0.31 0.76 0.63 1.51 1 2.26 0.4 0.94 0.81 1.88 1.23 2.81s0.84 1.87 1.27 2.79c0.53 1.15 1.07 2.29 1.63 3.42 0.34 0.7 0.68 1.4 1 2.1 0.49 1 1 2 1.5 2.92s0.87 1.67 1.32 2.5 1 1.75 1.43 2.63q1.35 2.43 2.78 4.83c0.51 0.86 1 1.72 1.55 2.58q2.37 3.89 4.91 7.65a218.033 218.033 0 0 0 3.44 4.96c0.59 0.82 1.1 1.53 1.65 2.28a1.16 1.16 0 0 0 0.16 0.21q0.87 1.2 1.77 2.37c0.6 0.8 1.22 1.6 1.84 2.39s1.24 1.58 1.87 2.36q2.82 3.52 5.82 6.92c0.66 0.75 1.33 1.5 2 2.24s1.35 1.49 2 2.22 1.37 1.47 2.06 2.19 1.4 1.45 2.1 2.16l2.13 2.13c2.86 2.84 5.79 5.57 8.81 8.22l2.27 2q3.44 3 7 5.73c0.79 0.62 1.59 1.23 2.39 1.84l2.41 1.81a32.5 32.5 0 0 1 39-52 146.16 146.16 0 0 1-17.39-15q-4.41-4.45-8.42-9.26-2-2.4-3.9-4.89c-1.27-1.66-2.5-3.36-3.71-5.08-0.79-1.15-1.57-2.3-2.34-3.47-1.14-1.75-2.26-3.53-3.33-5.34A145 145 0 0 1 334.53 367h0.05a32.5 32.5 0 0 0 0.79-65z" fill="#83C7FF" p-id="5514"></path><path d="M249 629c-0.56-0.41-1.12-0.82-1.67-1.25s-1-0.73-1.45-1.11l-0.45-0.35c-0.47-0.36-0.94-0.73-1.4-1.11-0.79-0.62-1.56-1.26-2.33-1.9-0.5-0.41-1-0.83-1.48-1.26q-2.09-1.78-4.1-3.65l-1.34-1.26-0.35-0.33-1.15-1.12c-0.56-0.54-1.12-1.09-1.67-1.65s-1-1-1.45-1.49-0.83-0.86-1.23-1.29q-0.39-0.4-0.75-0.81c-0.3-0.31-0.59-0.62-0.86-0.93s-0.43-0.47-0.63-0.7c-0.44-0.47-0.85-0.94-1.26-1.41l-0.88-1a102.082 102.082 0 0 1-2.66-3.2c-0.43-0.54-0.66-0.81-1-1.21-0.54-0.68-1.08-1.37-1.61-2.07-0.31-0.4-0.62-0.81-0.92-1.22s-0.61-0.82-0.9-1.23c0-0.05-0.09-0.11-0.14-0.17-0.49-0.68-1-1.37-1.46-2.06l-0.29-0.4a140.209 140.209 0 0 1-3.5-5.28c-0.38-0.61-0.71-1.12-1.06-1.69s-0.75-1.22-1.11-1.84-0.8-1.36-1.19-2-0.78-1.37-1.16-2.06l-1.08-2c0-0.08-0.08-0.16-0.13-0.24-0.34-0.64-0.68-1.3-1-1.95s-0.71-1.41-1.06-2.12-0.58-1.21-0.87-1.82-0.56-1.2-0.83-1.8c-0.14-0.3-0.28-0.6-0.41-0.91q-0.92-2.06-1.77-4.14c-0.31-0.73-0.6-1.47-0.89-2.22-0.38-1-0.76-2-1.12-3q-0.47-1.25-0.9-2.52c-0.38-1.12-0.75-2.24-1.11-3.38-0.26-0.82-0.51-1.65-0.76-2.48s-0.45-1.54-0.67-2.32q-1.17-4.2-2.09-8.52a117.046 117.046 0 0 1-0.98-5.02c-0.12-0.65-0.23-1.3-0.34-2 0-0.14 0-0.29-0.07-0.44-0.11-0.7-0.22-1.4-0.32-2.1-0.16-1.07-0.3-2.15-0.43-3.23-0.09-0.7-0.17-1.41-0.24-2.11s-0.16-1.53-0.23-2.3l-0.15-1.65v-0.52c-0.09-1.31-0.18-2.63-0.24-4 0-0.67-0.07-1.33-0.08-2a0.57 0.57 0 0 1 0-0.13v-1.39-1.43-2.25a145.08 145.08 0 0 1 7.14-45.08A32.5 32.5 0 0 0 135 446.51a2.47 2.47 0 0 0-0.1 0.29l-0.06 0.19a209.88 209.88 0 0 0-10.26 65q0 6.54 0.39 13c0.06 1 0.14 2 0.21 3s0.16 2 0.25 3l0.06 0.65c0 0.28 0.05 0.57 0.08 0.85 0.06 0.69 0.13 1.37 0.21 2.06 0.11 1 0.22 2 0.34 3 0 0.21 0 0.42 0.08 0.63 0.13 1 0.26 2 0.4 3a2.51 2.51 0 0 0 0 0.27c0.11 0.86 0.24 1.7 0.37 2.55s0.28 1.84 0.44 2.76 0.27 1.62 0.42 2.42c0.11 0.64 0.23 1.28 0.35 1.92 0.19 1 0.38 2 0.59 3q0.23 1.15 0.48 2.31c0.22 1 0.44 2 0.68 3.06s0.48 2 0.73 3 0.48 1.91 0.73 2.87c0.54 2.07 1.11 4.11 1.71 6.15 0.25 0.83 0.49 1.66 0.75 2.48 0.18 0.59 0.37 1.18 0.56 1.76 0.07 0.24 0.14 0.47 0.22 0.71 0.39 1.2 0.78 2.39 1.19 3.57l0.58 1.69c0.07 0.18 0.13 0.35 0.19 0.53s0.06 0.18 0.1 0.27c0.27 0.77 0.55 1.53 0.83 2.28 0.31 0.85 0.62 1.68 0.95 2.52a0.14 0.14 0 0 0 0 0.06l0.09 0.24q0.44 1.14 0.9 2.28t1 2.43v0.1c0.31 0.76 0.63 1.51 1 2.26 0.4 0.94 0.81 1.88 1.23 2.81s0.84 1.87 1.27 2.79 0.81 1.74 1.23 2.6c0.13 0.27 0.26 0.55 0.4 0.82 0.34 0.7 0.68 1.4 1 2.1 0.49 1 1 2 1.5 2.92s0.87 1.67 1.32 2.5 1 1.75 1.43 2.63q1.35 2.43 2.78 4.83l1.08 1.8 0.12 0.2 0.35 0.58 0.37 0.6c0.45 0.74 0.91 1.47 1.37 2.2q1.55 2.45 3.17 4.85l0.85 1.25c0.28 0.41 0.56 0.83 0.85 1.24 0.57 0.83 1.15 1.65 1.74 2.47s1.1 1.53 1.65 2.28a1.16 1.16 0 0 0 0.16 0.21q0.87 1.2 1.77 2.37c0.6 0.8 1.22 1.6 1.84 2.39s1.24 1.58 1.87 2.36c0.47 0.59 0.94 1.17 1.42 1.75l1.45 1.74c1 1.15 1.95 2.3 2.95 3.43 0.66 0.75 1.33 1.5 2 2.24l1 1.12 1 1.1c0.68 0.74 1.37 1.47 2.06 2.19s1.4 1.45 2.1 2.16l2.13 2.13q4.29 4.23 8.81 8.22l2.27 2q3.44 2.94 7 5.73c0.79 0.62 1.59 1.23 2.39 1.84l2.41 1.81a32.5 32.5 0 0 1 39-52z" fill="#C0E3FF" p-id="5515"></path><path d="M566.14 681.89c93.86 68.17 225.16 47.37 293.33-46.46S906.84 410.28 813 342.11s-225.15-47.37-293.32 46.46-47.37 225.15 46.46 293.32z m208.67-287.2a145 145 0 1 1-202.54 32.08 145 145 0 0 1 202.54-32.08z" fill="#0081FF" p-id="5516"></path><path d="M489.5 448c-26.79 83.73 1.26 178.68 76 233.4l0.67 0.5 0.69 0.49c75.23 54.19 174.32 51.42 245.67-0.12l0.25-0.18 0.22-0.09a209.86 209.86 0 0 0 46.49-46.54q3.84-5.28 7.31-10.72l1.61-2.56c0.52-0.87 1.05-1.72 1.56-2.59l0.34-0.56 0.43-0.73c0.36-0.6 0.7-1.19 1-1.79 0.51-0.88 1-1.77 1.51-2.65l0.3-0.56c0.49-0.89 1-1.76 1.43-2.65a1.36 1.36 0 0 0 0.13-0.24c0.41-0.76 0.8-1.51 1.2-2.28s0.85-1.65 1.26-2.49 0.74-1.47 1.09-2.2l0.84-1.76c0.44-0.92 0.87-1.85 1.29-2.78 0.33-0.71 0.65-1.43 1-2.15 0.42-1 0.84-1.91 1.25-2.87s0.8-1.93 1.19-2.89 0.74-1.83 1.1-2.75c0.78-2 1.52-4 2.23-6 0.28-0.82 0.58-1.63 0.85-2.45 0.2-0.58 0.39-1.17 0.58-1.75 0.09-0.24 0.16-0.47 0.24-0.71 0.39-1.2 0.77-2.39 1.14-3.59l0.52-1.7c0-0.19 0.1-0.36 0.16-0.54s0.06-0.19 0.08-0.28c0.23-0.78 0.45-1.56 0.67-2.33a0.13 0.13 0 0 0 0-0.06c0.25-0.87 0.48-1.72 0.71-2.59a0.14 0.14 0 0 0 0-0.06c0-0.09 0.05-0.17 0.07-0.25 0.21-0.79 0.41-1.58 0.61-2.37s0.43-1.7 0.63-2.55v-0.11c0.2-0.79 0.38-1.59 0.56-2.39 0.22-1 0.45-2 0.65-3s0.42-2 0.61-3 0.37-1.88 0.54-2.83c0-0.29 0.11-0.59 0.16-0.89 0.13-0.77 0.27-1.54 0.4-2.31 0.18-1.08 0.34-2.16 0.5-3.24s0.28-1.86 0.4-2.8 0.26-2 0.39-3c0.23-1.84 0.42-3.69 0.59-5.54 0.06-0.7 0.12-1.39 0.19-2.09a1.79 1.79 0 0 1 0-0.23v-0.68l0.06-0.7c0.07-0.86 0.12-1.73 0.18-2.59 0.13-1.92 0.22-3.85 0.29-5.78v-1.51-1.51-3V511a2.35 2.35 0 0 0 0-0.27v-3c0-1 0-2-0.08-3s-0.08-2-0.13-3q0-1.12-0.12-2.25c-0.05-0.75-0.09-1.5-0.15-2.26-0.11-1.5-0.23-3-0.37-4.51-0.09-1-0.19-2-0.3-3-0.06-0.49-0.11-1-0.17-1.5l-0.18-1.49c-0.11-1-0.24-2-0.38-3s-0.28-2-0.43-3-0.3-2-0.47-3c-0.64-4-1.41-7.91-2.29-11.83-0.22-1-0.45-2-0.68-2.93q-1-4.41-2.3-8.75c-0.27-1-0.56-1.93-0.85-2.89s-0.58-1.92-0.88-2.88a32.5 32.5 0 0 1-62.12 19.11c0.21 0.66 0.42 1.32 0.62 2s0.35 1.16 0.52 1.75c0.05 0.18 0.11 0.36 0.16 0.55 0.16 0.57 0.33 1.14 0.48 1.72 0.27 1 0.52 1.94 0.76 2.91 0.17 0.62 0.32 1.25 0.46 1.89q0.65 2.67 1.17 5.36c0.12 0.6 0.24 1.21 0.35 1.81l0.09 0.47 0.27 1.58c0.13 0.77 0.26 1.54 0.38 2.32s0.2 1.37 0.3 2.05 0.16 1.19 0.23 1.77c0.05 0.37 0.1 0.74 0.13 1.1 0.06 0.43 0.1 0.84 0.15 1.26s0.07 0.63 0.1 0.93c0.08 0.64 0.13 1.26 0.19 1.89 0 0.45 0.08 0.89 0.11 1.34 0.06 0.68 0.11 1.38 0.16 2.08 0 0.69 0.08 1.38 0.11 2.07 0 0.53 0.06 1.05 0.08 1.56 0 0.87 0.07 1.74 0.09 2.62V515c0 1.4-0.09 2.78-0.15 4.18 0 0.72-0.07 1.43-0.13 2.15s-0.08 1.32-0.13 2-0.11 1.43-0.18 2.14l-0.24 2.35-0.27 2.35c-0.09 0.75-0.19 1.5-0.31 2.25v0.27c-0.1 0.72-0.22 1.45-0.33 2.17s-0.26 1.56-0.39 2.34-0.23 1.33-0.36 2-0.26 1.3-0.39 1.94c-0.06 0.33-0.12 0.65-0.2 1-0.31 1.47-0.64 2.93-1 4.39-0.18 0.77-0.38 1.54-0.58 2.32-0.27 1-0.55 2-0.84 3.06-0.25 0.86-0.5 1.72-0.76 2.57-0.35 1.13-0.71 2.25-1.09 3.38q-0.4 1.23-0.84 2.46c-0.27 0.75-0.54 1.51-0.82 2.27-1 2.72-2.12 5.43-3.32 8.12-0.23 0.54-0.48 1.09-0.73 1.64-0.46 1-0.94 2-1.43 3-0.28 0.59-0.57 1.19-0.87 1.78l-0.2 0.4c-0.32 0.64-0.65 1.26-1 1.89-0.5 1-1 1.91-1.55 2.86-0.34 0.62-0.69 1.24-1.05 1.85s-0.77 1.33-1.16 2c-0.29 0.47-0.57 0.94-0.85 1.42l-0.27 0.44c-0.7 1.13-1.4 2.24-2.14 3.35-0.35 0.56-0.73 1.11-1.11 1.66a0.26 0.26 0 0 1-0.07 0.11c-0.25 0.39-0.52 0.77-0.78 1.15s-0.54 0.79-0.82 1.18l-1.3 1.83a144.86 144.86 0 0 1-202.5 32.11A145 145 0 0 1 688.72 367a32.5 32.5 0 0 0 0.31-65h-1.33a210.26 210.26 0 0 0-198.2 146z" fill="#3398FF" p-id="5517"></path><path d="M490.21 445.84l-0.39 1.18a0.19 0.19 0 0 0 0 0.07c-27.29 84 0.67 179.41 75.71 234.33l0.67 0.5 0.69 0.49c75.25 54.2 174.33 51.42 245.7-0.14l0.25-0.18 0.16-0.09a209.86 209.86 0 0 0 46.49-46.54q3.84-5.28 7.31-10.72l1.61-2.56c0.52-0.87 1.05-1.72 1.56-2.59l0.34-0.56 0.43-0.73c0.87-1.47 1.72-3 2.55-4.44 0.59-1.07 1.16-2.14 1.73-3.21 0.46-0.84 0.9-1.67 1.33-2.52s0.85-1.65 1.26-2.49 0.74-1.47 1.09-2.2l0.84-1.76q1.83-3.89 3.51-7.8c0.39-1 0.8-1.93 1.19-2.89s0.74-1.83 1.1-2.75c0.78-2 1.52-4 2.23-6 0.28-0.82 0.58-1.63 0.85-2.45 0.2-0.58 0.39-1.17 0.58-1.75 0.09-0.24 0.16-0.47 0.24-0.71 0.39-1.2 0.77-2.39 1.14-3.59l0.52-1.7c0-0.19 0.1-0.36 0.16-0.54s0.06-0.19 0.08-0.28c0.23-0.78 0.45-1.56 0.67-2.33a0.13 0.13 0 0 0 0-0.06c0.25-0.87 0.48-1.72 0.71-2.59a0.14 0.14 0 0 0 0-0.06c0.23-0.87 0.46-1.74 0.68-2.62s0.43-1.7 0.63-2.55v-0.11c0.2-0.79 0.38-1.59 0.56-2.39 0.22-1 0.45-2 0.65-3s0.42-2 0.61-3 0.37-1.88 0.54-2.83c0-0.29 0.11-0.59 0.16-0.89 0.13-0.77 0.27-1.54 0.4-2.31 0.18-1.08 0.34-2.16 0.5-3.24s0.28-1.86 0.4-2.8 0.26-2 0.39-3c0.23-1.84 0.42-3.69 0.59-5.54l0.21-2.32v-0.68l0.06-0.7c0.07-0.86 0.12-1.73 0.18-2.59 0.13-1.92 0.22-3.85 0.29-5.78v-1.51-1.51-3V511a2.35 2.35 0 0 0 0-0.27v-3c0-1 0-2-0.08-3s-0.08-2-0.13-3c-0.07-1.5-0.16-3-0.27-4.51s-0.23-3-0.37-4.51c-0.09-1-0.19-2-0.3-3-0.06-0.49-0.11-1-0.17-1.5l-0.18-1.49c-0.11-1-0.24-2-0.38-3s-0.28-2-0.43-3-0.3-2-0.47-3c-0.64-4-1.41-7.91-2.29-11.83-0.22-1-0.45-2-0.68-2.93q-1-4.41-2.3-8.75c-0.27-1-0.56-1.93-0.85-2.89s-0.58-1.92-0.88-2.88a32.5 32.5 0 0 1-62.12 19.11c0.21 0.66 0.42 1.32 0.62 2l0.52 1.75c0.05 0.18 0.11 0.36 0.16 0.55l0.48 1.72c0.27 1 0.52 1.94 0.76 2.91 0.16 0.63 0.31 1.26 0.46 1.89q1.53 5.8 2.43 11.63c0.11 0.68 0.2 1.37 0.3 2.05s0.15 1.18 0.23 1.77c0.05 0.37 0.1 0.74 0.13 1.1 0.1 0.73 0.18 1.47 0.25 2.21s0.13 1.25 0.19 1.89c0.11 1.14 0.19 2.28 0.27 3.42 0.08 1.21 0.15 2.42 0.19 3.63 0 0.87 0.07 1.75 0.09 2.62s0 2 0 3.05V515c0 1.4-0.09 2.78-0.15 4.18 0 0.72-0.07 1.43-0.13 2.15s-0.08 1.32-0.13 2-0.11 1.43-0.18 2.14l-0.24 2.35-0.27 2.35c-0.09 0.75-0.19 1.5-0.31 2.25v0.27c-0.1 0.72-0.21 1.45-0.33 2.17l-0.39 2.34c-0.23 1.32-0.48 2.64-0.76 4-0.06 0.33-0.13 0.66-0.2 1-0.31 1.47-0.64 2.93-1 4.39-0.18 0.78-0.38 1.55-0.58 2.32q-1.51 5.78-3.53 11.47c-0.27 0.75-0.54 1.51-0.82 2.27-1 2.72-2.12 5.43-3.32 8.12-0.23 0.54-0.48 1.09-0.73 1.64-1.53 3.35-3.21 6.67-5 9.93-0.34 0.62-0.69 1.23-1.05 1.85s-0.77 1.33-1.16 2c-0.29 0.47-0.57 0.94-0.85 1.42-0.78 1.26-1.58 2.53-2.41 3.79-0.38 0.6-0.78 1.19-1.18 1.77-0.25 0.39-0.52 0.77-0.78 1.15s-0.54 0.79-0.82 1.18l-1.3 1.83a144.86 144.86 0 0 1-202.5 32.11 145.1 145.1 0 0 1-52.63-162.4 32.52 32.52 0 0 0-30.55-42.71h-1.33a32.53 32.53 0 0 0-29.71 21.51z" fill="#59ACFF" p-id="5518"></path><path d="M565.51 681.42l0.67 0.5 0.69 0.49c75.25 54.2 174.33 51.42 245.7-0.14l0.25-0.18 0.18-0.09a209.86 209.86 0 0 0 46.49-46.54q3.84-5.28 7.31-10.72c1.08-1.71 2.14-3.42 3.17-5.15l0.34-0.56c1-1.71 2-3.44 3-5.17a215.29 215.29 0 0 0 9.76-20c0.39-1 0.8-1.93 1.19-2.89q1.77-4.35 3.33-8.73 0.87-2.44 1.67-4.91c0.39-1.2 0.77-2.39 1.14-3.59 0.23-0.74 0.45-1.49 0.68-2.24 1-3.53 2-7 2.82-10.6 0.2-0.79 0.38-1.59 0.56-2.39 0.22-1 0.45-2 0.65-3s0.42-2 0.61-3c0.25-1.24 0.49-2.48 0.7-3.72 0.13-0.77 0.27-1.54 0.4-2.31 0.18-1.08 0.34-2.16 0.5-3.24s0.28-1.86 0.4-2.8 0.26-2 0.39-3c0.23-1.84 0.42-3.69 0.59-5.54 0.09-1 0.18-2 0.26-3q0.38-4.53 0.53-9.07l0.09-3v-3-2.81a2.35 2.35 0 0 0 0-0.27v-3c0-1 0-2-0.08-3s-0.08-2-0.13-3q-0.21-4.5-0.64-9c-0.09-1-0.19-2-0.3-3s-0.22-2-0.35-3-0.24-2-0.38-3-0.28-2-0.43-3-0.3-2-0.47-3c-0.64-4-1.41-7.91-2.29-11.83-0.22-1-0.45-2-0.68-2.93q-1-4.41-2.3-8.75c-0.27-1-0.56-1.93-0.85-2.89s-0.58-1.92-0.88-2.88a32.5 32.5 0 0 1-62.12 19.11A145.68 145.68 0 0 1 832.9 490q0.95 6.19 1.37 12.44 0.21 3.12 0.28 6.25c0.05 2.09 0.05 4.19 0 6.29 0 1.4-0.09 2.78-0.15 4.18-0.11 2.09-0.25 4.19-0.44 6.28a145 145 0 0 1-229.59 103.9 32.5 32.5 0 0 0-38.84 52.11z" fill="#83C7FF" p-id="5519"></path><path d="M827.64 467.64c0.21 0.66 0.42 1.32 0.62 2s0.35 1.16 0.52 1.75c0.05 0.18 0.11 0.36 0.16 0.55 0.16 0.57 0.33 1.14 0.48 1.72 0.27 1 0.52 1.94 0.76 2.91 0.17 0.62 0.32 1.25 0.46 1.89q0.65 2.67 1.17 5.36c0.12 0.6 0.24 1.21 0.35 1.81l0.09 0.47 0.27 1.58c0.13 0.77 0.26 1.54 0.38 2.32s0.2 1.37 0.3 2.05 0.16 1.19 0.23 1.77c0.05 0.37 0.1 0.74 0.13 1.1q0.09 0.65 0.15 1.26c0 0.31 0.07 0.63 0.1 0.93 0.08 0.64 0.13 1.26 0.19 1.89 0 0.45 0.08 0.89 0.11 1.34 0.07 0.69 0.11 1.39 0.16 2.08 0 0.69 0.08 1.38 0.11 2.07 0 0.53 0.06 1.05 0.08 1.56 0 0.87 0.07 1.74 0.09 2.62V515c0 1.39-0.08 2.79-0.15 4.18 0 0.72-0.07 1.43-0.13 2.15s-0.08 1.32-0.13 2-0.11 1.43-0.18 2.14l-0.24 2.35-0.27 2.35c-0.1 0.74-0.2 1.5-0.31 2.25v0.27c-0.1 0.72-0.22 1.45-0.33 2.17s-0.26 1.56-0.39 2.34-0.24 1.32-0.36 2l-0.39 1.94c-0.06 0.33-0.12 0.65-0.2 1-0.31 1.47-0.64 2.93-1 4.39-0.18 0.77-0.38 1.54-0.58 2.32-0.27 1-0.55 2-0.84 3.06-0.24 0.85-0.49 1.71-0.76 2.57-0.35 1.13-0.71 2.25-1.09 3.38q-0.4 1.23-0.84 2.46c-0.27 0.75-0.54 1.51-0.82 2.27-1 2.72-2.12 5.43-3.32 8.12-0.23 0.54-0.48 1.09-0.73 1.64-0.46 1-0.94 2-1.43 3-0.28 0.59-0.57 1.18-0.87 1.78l-0.2 0.4-1 1.89c-0.5 1-1 1.91-1.55 2.86-0.34 0.62-0.69 1.24-1.05 1.85s-0.77 1.33-1.16 2c-0.29 0.47-0.57 0.94-0.85 1.42l-0.27 0.44c-0.7 1.12-1.4 2.24-2.14 3.35-0.36 0.56-0.72 1.11-1.11 1.66a0.26 0.26 0 0 1-0.07 0.11c-0.25 0.39-0.52 0.77-0.78 1.15s-0.54 0.79-0.82 1.18l-1.3 1.83a145.3 145.3 0 0 1-32.28 32.27 32.5 32.5 0 0 0 37.93 52.79l0.25-0.18 0.21-0.15a209.86 209.86 0 0 0 46.49-46.54q3.84-5.28 7.31-10.72l1.61-2.56c0.52-0.87 1.05-1.72 1.56-2.59l0.34-0.56 0.43-0.73c0.36-0.6 0.7-1.19 1-1.79 0.51-0.88 1-1.77 1.51-2.65l0.3-0.56c0.49-0.89 1-1.76 1.43-2.65a1.36 1.36 0 0 0 0.13-0.24c0.41-0.76 0.8-1.51 1.2-2.28s0.85-1.65 1.26-2.49 0.74-1.47 1.09-2.2l0.84-1.76c0.44-0.92 0.87-1.85 1.29-2.78 0.33-0.71 0.65-1.43 1-2.15 0.42-1 0.84-1.91 1.25-2.87s0.8-1.93 1.19-2.89 0.74-1.83 1.1-2.75c0.78-2 1.52-4 2.23-6 0.28-0.82 0.58-1.63 0.85-2.45 0.2-0.58 0.39-1.17 0.58-1.75 0.09-0.24 0.16-0.47 0.24-0.71 0.39-1.2 0.77-2.39 1.14-3.59l0.52-1.7c0-0.19 0.1-0.36 0.16-0.54s0.06-0.19 0.08-0.28c0.23-0.78 0.45-1.56 0.67-2.33a0.13 0.13 0 0 0 0-0.06c0.25-0.87 0.48-1.72 0.71-2.59a0.14 0.14 0 0 0 0-0.06c0-0.09 0.05-0.17 0.07-0.25 0.21-0.79 0.41-1.58 0.61-2.37s0.43-1.7 0.63-2.55v-0.11c0.2-0.79 0.38-1.59 0.56-2.39 0.22-1 0.45-2 0.65-3s0.42-2 0.61-3 0.37-1.88 0.54-2.83c0-0.29 0.11-0.59 0.16-0.89 0.13-0.77 0.27-1.54 0.4-2.31 0.18-1.08 0.34-2.16 0.5-3.24s0.28-1.86 0.4-2.8 0.26-2 0.39-3c0.23-1.84 0.42-3.69 0.59-5.54 0.06-0.7 0.12-1.39 0.19-2.09a1.79 1.79 0 0 1 0-0.23v-0.68l0.06-0.7c0.07-0.86 0.12-1.73 0.18-2.59 0.13-1.92 0.22-3.85 0.29-5.78v-1.51-1.51-3V511a2.35 2.35 0 0 0 0-0.27v-3c0-1 0-2-0.08-3s-0.08-2-0.13-3q0-1.12-0.12-2.25c-0.05-0.75-0.09-1.5-0.15-2.26-0.11-1.5-0.23-3-0.37-4.51-0.09-1-0.19-2-0.3-3-0.06-0.49-0.11-1-0.17-1.5l-0.18-1.49c-0.11-1-0.24-2-0.38-3s-0.28-2-0.43-3-0.3-2-0.47-3q-1-5.94-2.29-11.83c-0.22-1-0.45-2-0.68-2.93q-1-4.4-2.3-8.75c-0.27-1-0.56-1.93-0.85-2.89s-0.58-1.92-0.88-2.88a32.5 32.5 0 0 1-62.12 19.11z" fill="#C0E3FF" p-id="5520"></path><path d="M241.38 203.96m-41.52 0a41.52 41.52 0 1 0 83.04 0 41.52 41.52 0 1 0-83.04 0Z" fill="#0081FF" p-id="5521"></path><path d="M271.2 175.07a41.52 41.52 0 0 1-59.64 0 41.52 41.52 0 0 1 59.64 0z" fill="#0081FF" p-id="5522"></path><path d="M276.81 182.29a41.53 41.53 0 0 1-70.86 0 41.54 41.54 0 0 1 70.86 0z" fill="#0081FF" p-id="5523"></path><path d="M280.31 189.51a41.52 41.52 0 0 1-77.86 0 41.53 41.53 0 0 1 77.86 0z" fill="#0081FF" p-id="5524"></path><path d="M282.28 196.73a41.53 41.53 0 0 1-81.79 0 41.53 41.53 0 0 1 81.79 0z" fill="#0081FF" p-id="5525"></path><path d="M282.28 196.73a41.53 41.53 0 0 1-81.79 0 41.53 41.53 0 0 1 81.79 0z" fill="#3398FF" p-id="5526"></path><path d="M280.31 189.51a41.52 41.52 0 0 1-77.86 0 41.53 41.53 0 0 1 77.86 0z" fill="#59ACFF" p-id="5527"></path><path d="M276.81 182.29a41.53 41.53 0 0 1-70.86 0 41.54 41.54 0 0 1 70.86 0z" fill="#83C7FF" p-id="5528"></path><path d="M271.2 175.07a41.52 41.52 0 0 1-59.64 0 41.52 41.52 0 0 1 59.64 0z" fill="#C0E3FF" p-id="5529"></path><path d="M512.09 203.96m-41.52 0a41.52 41.52 0 1 0 83.04 0 41.52 41.52 0 1 0-83.04 0Z" fill="#0081FF" p-id="5530"></path><path d="M541.91 175.07a41.53 41.53 0 0 1-59.65 0 41.53 41.53 0 0 1 59.65 0z" fill="#0081FF" p-id="5531"></path><path d="M547.51 182.29a41.52 41.52 0 0 1-70.85 0 41.54 41.54 0 0 1 70.85 0z" fill="#0081FF" p-id="5532"></path><path d="M551 189.51a41.53 41.53 0 0 1-77.87 0 41.54 41.54 0 0 1 77.87 0z" fill="#0081FF" p-id="5533"></path><path d="M553 196.73a41.53 41.53 0 0 1-81.79 0 41.53 41.53 0 0 1 81.79 0z" fill="#0081FF" p-id="5534"></path><path d="M553 196.73a41.53 41.53 0 0 1-81.79 0 41.53 41.53 0 0 1 81.79 0z" fill="#3398FF" p-id="5535"></path><path d="M551 189.51a41.53 41.53 0 0 1-77.87 0 41.54 41.54 0 0 1 77.87 0z" fill="#59ACFF" p-id="5536"></path><path d="M547.51 182.29a41.52 41.52 0 0 1-70.85 0 41.54 41.54 0 0 1 70.85 0z" fill="#83C7FF" p-id="5537"></path><path d="M541.91 175.07a41.53 41.53 0 0 1-59.65 0 41.53 41.53 0 0 1 59.65 0z" fill="#C0E3FF" p-id="5538"></path><path d="M782.79 203.96m-41.52 0a41.52 41.52 0 1 0 83.04 0 41.52 41.52 0 1 0-83.04 0Z" fill="#0081FF" p-id="5539"></path><path d="M812.61 175.07a41.52 41.52 0 0 1-59.64 0 41.52 41.52 0 0 1 59.64 0z" fill="#0081FF" p-id="5540"></path><path d="M818.22 182.29a41.53 41.53 0 0 1-70.86 0 41.54 41.54 0 0 1 70.86 0z" fill="#0081FF" p-id="5541"></path><path d="M821.72 189.51a41.52 41.52 0 0 1-77.86 0 41.53 41.53 0 0 1 77.86 0z" fill="#0081FF" p-id="5542"></path><path d="M823.68 196.73a41.53 41.53 0 0 1-81.79 0 41.53 41.53 0 0 1 81.79 0z" fill="#0081FF" p-id="5543"></path><path d="M823.68 196.73a41.53 41.53 0 0 1-81.79 0 41.53 41.53 0 0 1 81.79 0z" fill="#3398FF" p-id="5544"></path><path d="M821.72 189.51a41.52 41.52 0 0 1-77.86 0 41.53 41.53 0 0 1 77.86 0z" fill="#59ACFF" p-id="5545"></path><path d="M818.22 182.29a41.53 41.53 0 0 1-70.86 0 41.54 41.54 0 0 1 70.86 0z" fill="#83C7FF" p-id="5546"></path><path d="M812.61 175.07a41.52 41.52 0 0 1-59.64 0 41.52 41.52 0 0 1 59.64 0z" fill="#C0E3FF" p-id="5547"></path><path d="M241.38 820.04m-41.52 0a41.52 41.52 0 1 0 83.04 0 41.52 41.52 0 1 0-83.04 0Z" fill="#0081FF" p-id="5548"></path><path d="M271.2 848.93a41.52 41.52 0 0 0-59.64 0 41.52 41.52 0 0 0 59.64 0z" fill="#0081FF" p-id="5549"></path><path d="M276.81 841.71a41.53 41.53 0 0 0-70.86 0 41.54 41.54 0 0 0 70.86 0z" fill="#0081FF" p-id="5550"></path><path d="M280.31 834.49a41.52 41.52 0 0 0-77.86 0 41.53 41.53 0 0 0 77.86 0z" fill="#0081FF" p-id="5551"></path><path d="M282.28 827.27a41.53 41.53 0 0 0-81.79 0 41.53 41.53 0 0 0 81.79 0z" fill="#0081FF" p-id="5552"></path><path d="M282.28 827.27a41.53 41.53 0 0 0-81.79 0 41.53 41.53 0 0 0 81.79 0z" fill="#3398FF" p-id="5553"></path><path d="M280.31 834.49a41.52 41.52 0 0 0-77.86 0 41.53 41.53 0 0 0 77.86 0z" fill="#59ACFF" p-id="5554"></path><path d="M276.81 841.71a41.53 41.53 0 0 0-70.86 0 41.54 41.54 0 0 0 70.86 0z" fill="#83C7FF" p-id="5555"></path><path d="M271.2 848.93a41.52 41.52 0 0 0-59.64 0 41.52 41.52 0 0 0 59.64 0z" fill="#C0E3FF" p-id="5556"></path><path d="M512.09 820.04m-41.52 0a41.52 41.52 0 1 0 83.04 0 41.52 41.52 0 1 0-83.04 0Z" fill="#0081FF" p-id="5557"></path><path d="M541.91 848.93a41.53 41.53 0 0 0-59.65 0 41.53 41.53 0 0 0 59.65 0z" fill="#0081FF" p-id="5558"></path><path d="M547.51 841.71a41.52 41.52 0 0 0-70.85 0 41.54 41.54 0 0 0 70.85 0z" fill="#0081FF" p-id="5559"></path><path d="M551 834.49a41.53 41.53 0 0 0-77.87 0 41.54 41.54 0 0 0 77.87 0z" fill="#0081FF" p-id="5560"></path><path d="M553 827.27a41.53 41.53 0 0 0-81.79 0 41.53 41.53 0 0 0 81.79 0z" fill="#0081FF" p-id="5561"></path><path d="M553 827.27a41.53 41.53 0 0 0-81.79 0 41.53 41.53 0 0 0 81.79 0z" fill="#3398FF" p-id="5562"></path><path d="M551 834.49a41.53 41.53 0 0 0-77.87 0 41.54 41.54 0 0 0 77.87 0z" fill="#59ACFF" p-id="5563"></path><path d="M547.51 841.71a41.52 41.52 0 0 0-70.85 0 41.54 41.54 0 0 0 70.85 0z" fill="#83C7FF" p-id="5564"></path><path d="M541.91 848.93a41.53 41.53 0 0 0-59.65 0 41.53 41.53 0 0 0 59.65 0z" fill="#C0E3FF" p-id="5565"></path><path d="M782.79 820.04m-41.52 0a41.52 41.52 0 1 0 83.04 0 41.52 41.52 0 1 0-83.04 0Z" fill="#0081FF" p-id="5566"></path><path d="M812.61 848.93a41.52 41.52 0 0 0-59.64 0 41.52 41.52 0 0 0 59.64 0z" fill="#0081FF" p-id="5567"></path><path d="M818.22 841.71a41.53 41.53 0 0 0-70.86 0 41.54 41.54 0 0 0 70.86 0z" fill="#0081FF" p-id="5568"></path><path d="M821.72 834.49a41.52 41.52 0 0 0-77.86 0 41.53 41.53 0 0 0 77.86 0z" fill="#0081FF" p-id="5569"></path><path d="M823.68 827.27a41.53 41.53 0 0 0-81.79 0 41.53 41.53 0 0 0 81.79 0z" fill="#0081FF" p-id="5570"></path><path d="M823.68 827.27a41.53 41.53 0 0 0-81.79 0 41.53 41.53 0 0 0 81.79 0z" fill="#3398FF" p-id="5571"></path><path d="M821.72 834.49a41.52 41.52 0 0 0-77.86 0 41.53 41.53 0 0 0 77.86 0z" fill="#59ACFF" p-id="5572"></path><path d="M818.22 841.71a41.53 41.53 0 0 0-70.86 0 41.54 41.54 0 0 0 70.86 0z" fill="#83C7FF" p-id="5573"></path><path d="M812.61 848.93a41.52 41.52 0 0 0-59.64 0 41.52 41.52 0 0 0 59.64 0z" fill="#C0E3FF" p-id="5574"></path><path d="M981.24 512m-41.52 0a41.52 41.52 0 1 0 83.04 0 41.52 41.52 0 1 0-83.04 0Z" fill="#0081FF" p-id="5575"></path><path d="M1011.06 483.11a41.51 41.51 0 0 1-59.65 0 41.53 41.53 0 0 1 59.65 0z" fill="#0081FF" p-id="5576"></path><path d="M1016.66 490.34a41.54 41.54 0 0 1-70.85 0 41.52 41.52 0 0 1 70.85 0z" fill="#0081FF" p-id="5577"></path><path d="M1020.17 497.56a41.54 41.54 0 0 1-77.87 0 41.53 41.53 0 0 1 77.87 0z" fill="#0081FF" p-id="5578"></path><path d="M1022.13 504.78a41.53 41.53 0 0 1-81.79 0 41.53 41.53 0 0 1 81.79 0z" fill="#0081FF" p-id="5579"></path><path d="M1022.13 504.78a41.53 41.53 0 0 1-81.79 0 41.53 41.53 0 0 1 81.79 0z" fill="#3398FF" p-id="5580"></path><path d="M1020.17 497.56a41.54 41.54 0 0 1-77.87 0 41.53 41.53 0 0 1 77.87 0z" fill="#59ACFF" p-id="5581"></path><path d="M1016.66 490.34a41.54 41.54 0 0 1-70.85 0 41.52 41.52 0 0 1 70.85 0z" fill="#83C7FF" p-id="5582"></path><path d="M1011.06 483.11a41.51 41.51 0 0 1-59.65 0 41.53 41.53 0 0 1 59.65 0z" fill="#C0E3FF" p-id="5583"></path><path d="M42.94 512m-41.52 0a41.52 41.52 0 1 0 83.04 0 41.52 41.52 0 1 0-83.04 0Z" fill="#0081FF" p-id="5584"></path><path d="M72.76 483.11a41.51 41.51 0 0 1-59.65 0 41.53 41.53 0 0 1 59.65 0z" fill="#0081FF" p-id="5585"></path><path d="M78.36 490.34a41.54 41.54 0 0 1-70.85 0 41.52 41.52 0 0 1 70.85 0z" fill="#0081FF" p-id="5586"></path><path d="M81.87 497.56a41.54 41.54 0 0 1-77.87 0 41.53 41.53 0 0 1 77.87 0z" fill="#0081FF" p-id="5587"></path><path d="M83.83 504.78a41.53 41.53 0 0 1-81.79 0 41.53 41.53 0 0 1 81.79 0z" fill="#0081FF" p-id="5588"></path><path d="M83.83 504.78a41.53 41.53 0 0 1-81.79 0 41.53 41.53 0 0 1 81.79 0z" fill="#3398FF" p-id="5589"></path><path d="M81.87 497.56a41.54 41.54 0 0 1-77.87 0 41.53 41.53 0 0 1 77.87 0z" fill="#59ACFF" p-id="5590"></path><path d="M78.36 490.34a41.54 41.54 0 0 1-70.85 0 41.52 41.52 0 0 1 70.85 0z" fill="#83C7FF" p-id="5591"></path><path d="M72.76 483.11a41.51 41.51 0 0 1-59.65 0 41.53 41.53 0 0 1 59.65 0z" fill="#C0E3FF" p-id="5592"></path></svg>