<?xml version="1.0" standalone="no"?><!DOCTYPE svg PUBLIC "-//W3C//DTD SVG 1.1//EN" "http://www.w3.org/Graphics/SVG/1.1/DTD/svg11.dtd"><svg t="1778824775354" class="icon" viewBox="0 0 1024 1024" version="1.1" xmlns="http://www.w3.org/2000/svg" p-id="2716" xmlns:xlink="http://www.w3.org/1999/xlink" width="200" height="200"><path d="M708.47 501.7q-5-0.24-10-0.24a216.93 216.93 0 0 0-87.21 18.33 303.52 303.52 0 0 0-123-146.9A194.09 194.09 0 0 1 708.47 501.7z" fill="#F5F536" p-id="2717"></path><path d="M754.55 508.8a217.15 217.15 0 0 0-143.3 11A303.77 303.77 0 0 0 465 359.87c0.42-0.77 0.85-1.55 1.29-2.31a193.06 193.06 0 0 1 95.19-24.94c101.09 0 184.12 77.38 193.07 176.18z" fill="#F5F536" p-id="2718"></path><path d="M792.2 489.65a195.2 195.2 0 0 1-2.6 31.82 217.11 217.11 0 0 0-178.35-1.68A303.77 303.77 0 0 0 465 359.87a194.05 194.05 0 0 1 15.92-24.51 193 193 0 0 1 117.42-39.59c107.06 0 193.86 86.8 193.86 193.88z" fill="#F5F536" p-id="2719"></path><path d="M579.61 892.63h-251a260.43 260.43 0 0 1-201.65-95.08 261 261 0 0 1 452.68 95.08zM750.92 884.55a173.64 173.64 0 0 1-52.58 8.08h-73.06a174.38 174.38 0 0 1 125.64-8.08z" fill="#0081FF" p-id="2720"></path><path d="M820.16 843.08q-4.11 4-8.53 7.79a174 174 0 0 1-113.29 41.76H328.58A260.93 260.93 0 0 1 98.92 756.08a261 261 0 0 1 486.53 79.21 174 174 0 0 1 234.71 7.79z" fill="#0081FF" p-id="2721"></path><path d="M851.54 801.6a174.23 174.23 0 0 1-153.2 91H328.58c-115.2 0.09-213-74.5-247.71-178 34.64-103.4 132.27-178 247.36-178a261 261 0 0 1 257.22 215.73 174.17 174.17 0 0 1 266.09 49.27z" fill="#0081FF" p-id="2722"></path><path d="M698.34 892.63H328.59C184.44 892.73 67.5 776 67.4 631.81s116.68-261.09 260.82-261.19a261 261 0 0 1 257.24 215.77 174 174 0 1 1 112.88 306.24z" fill="#0081FF" p-id="2723"></path><path d="M867.56 760.06a174.05 174.05 0 0 1-169.22 132.57H328.58c-130.08 0.1-238-95-257.9-219.53 19.87-124.36 127.58-219.42 257.55-219.51a261 261 0 0 1 257.22 215.76 174.07 174.07 0 0 1 282.11 90.71z" fill="#0081FF" p-id="2724"></path><path d="M867.56 760.06a174.05 174.05 0 0 1-169.22 132.57H328.58c-130.08 0.1-238-95-257.9-219.53 19.87-124.36 127.58-219.42 257.55-219.51a261 261 0 0 1 257.22 215.76 174.07 174.07 0 0 1 282.11 90.71z" fill="#3398FF" p-id="2725"></path><path d="M851.54 801.6a174.23 174.23 0 0 1-153.2 91H328.58c-115.2 0.09-213-74.5-247.71-178 34.64-103.4 132.27-178 247.36-178a261 261 0 0 1 257.22 215.73 174.17 174.17 0 0 1 266.09 49.27z" fill="#59ACFF" p-id="2726"></path><path d="M820.16 843.08q-4.11 4-8.53 7.79a174 174 0 0 1-113.29 41.76H328.58A260.93 260.93 0 0 1 98.92 756.08a261 261 0 0 1 486.53 79.21 174 174 0 0 1 234.71 7.79z" fill="#83C7FF" p-id="2727"></path><path d="M579.61 892.63h-251a260.43 260.43 0 0 1-201.65-95.08 261 261 0 0 1 452.68 95.08zM750.92 884.55a173.64 173.64 0 0 1-52.58 8.08h-73.06a174.38 174.38 0 0 1 125.64-8.08z" fill="#C0E3FF" p-id="2728"></path><path d="M829.06 452.79a193.07 193.07 0 0 1-17.42 80.43 217.15 217.15 0 0 0-200.39-13.43A303.77 303.77 0 0 0 465 359.87a193.8 193.8 0 0 1 170.2-101c107.05 0.04 193.86 86.84 193.86 193.92z" fill="#F5F536" p-id="2729"></path><path d="M792.2 489.65a195.2 195.2 0 0 1-2.6 31.82 217.11 217.11 0 0 0-178.35-1.68A303.77 303.77 0 0 0 465 359.87a194.05 194.05 0 0 1 15.92-24.51 193 193 0 0 1 117.42-39.59c107.06 0 193.86 86.8 193.86 193.88z" fill="#F9CE0A" p-id="2730"></path><path d="M754.55 508.8a217.15 217.15 0 0 0-143.3 11A303.77 303.77 0 0 0 465 359.87c0.42-0.77 0.85-1.55 1.29-2.31a193.06 193.06 0 0 1 95.19-24.94c101.09 0 184.12 77.38 193.07 176.18z" fill="#F5AF10" p-id="2731"></path><path d="M708.47 501.7q-5-0.24-10-0.24a216.93 216.93 0 0 0-87.21 18.33 303.52 303.52 0 0 0-123-146.9A194.09 194.09 0 0 1 708.47 501.7z" fill="#F08719" p-id="2732"></path><path d="M613.42 131.37m21.75 0l0 0q21.75 0 21.75 21.75l0 43.5q0 21.75-21.75 21.75l0 0q-21.75 0-21.75-21.75l0-43.5q0-21.75 21.75-21.75Z" fill="#F9CE0A" p-id="2733"></path><path d="M777.058778 163.556869m18.836052 10.875l0 0q18.836053 10.875 7.961053 29.711052l-21.75 37.672105q-10.875 18.836053-29.711053 7.961053l0 0q-18.836053-10.875-7.961052-29.711053l21.75-37.672105q10.875-18.836053 29.711052-7.961052Z" fill="#F9CE0A" p-id="2734"></path><path d="M902.662301 273.246947m10.875 18.836053l0 0q10.875 18.836053-7.961052 29.711053l-37.672105 21.75q-18.836053 10.875-29.711053-7.961053l0 0q-10.875-18.836053 7.961053-29.711053l37.672105-21.75q18.836053-10.875 29.711052 7.961053Z" fill="#F9CE0A" p-id="2735"></path><path d="M956.6 431.04m0 21.75l0 0q0 21.75-21.75 21.75l-43.5 0q-21.75 0-21.75-21.75l0 0q0-21.75 21.75-21.75l43.5 0q21.75 0 21.75 21.75Z" fill="#F9CE0A" p-id="2736"></path><path d="M455.62418 185.301761m18.836052-10.875l0 0q18.836053-10.875 29.711053 7.961052l21.75 37.672106q10.875 18.836053-7.961053 29.711052l0 0q-18.836053 10.875-29.711052-7.961052l-21.75-37.672106q-10.875-18.836053 7.961052-29.711052Z" fill="#F9CE0A" p-id="2737"></path><path d="M656.93 178v18.62a21.75 21.75 0 0 1-43.5 0V178a21.75 21.75 0 0 0 43.5 0z" fill="#F08719" p-id="2738"></path><path d="M656.93 153.12v18.61a21.75 21.75 0 0 0-43.5 0v-18.61a21.75 21.75 0 0 1 43.5 0z" fill="#F5F536" p-id="2739"></path><path d="M791.41 225.69l-9.31 16.12a21.75 21.75 0 1 1-37.67-21.75l9.31-16.12a21.75 21.75 0 1 0 37.67 21.75z" fill="#F08719" p-id="2740"></path><path d="M803.85 204.14l-9.31 16.12a21.75 21.75 0 0 0-37.67-21.75l9.31-16.12a21.75 21.75 0 0 1 37.67 21.75z" fill="#F5F536" p-id="2741"></path><path d="M884 334.23l-16.12 9.31a21.75 21.75 0 1 1-21.75-37.67l16.12-9.31A21.75 21.75 0 1 0 884 334.23z" fill="#F08719" p-id="2742"></path><path d="M905.58 321.79l-16.13 9.31a21.75 21.75 0 0 0-21.75-37.67l16.13-9.31a21.75 21.75 0 0 1 21.75 37.67z" fill="#F5F536" p-id="2743"></path><path d="M910 474.54h-18.65a21.75 21.75 0 0 1 0-43.5H910a21.75 21.75 0 0 0 0 43.5z" fill="#F08719" p-id="2744"></path><path d="M934.85 474.54h-18.62a21.75 21.75 0 0 0 0-43.5h18.62a21.75 21.75 0 0 1 0 43.5zM475.81 220.26l-9.31-16.12a21.75 21.75 0 1 1 37.67-21.75l9.31 16.12a21.75 21.75 0 1 0-37.67 21.75z" fill="#F5F536" p-id="2745"></path><path d="M488.25 241.81l-9.31-16.12a21.75 21.75 0 0 0 37.68-21.75l9.3 16.12a21.75 21.75 0 0 1-37.67 21.75z" fill="#F08719" p-id="2746"></path></svg>