<?xml version="1.0" standalone="no"?><!DOCTYPE svg PUBLIC "-//W3C//DTD SVG 1.1//EN" "http://www.w3.org/Graphics/SVG/1.1/DTD/svg11.dtd"><svg t="1778824819529" class="icon" viewBox="0 0 1024 1024" version="1.1" xmlns="http://www.w3.org/2000/svg" p-id="4753" xmlns:xlink="http://www.w3.org/1999/xlink" width="200" height="200"><path d="M766.49 314.5c-3.54-0.17-7.11-0.25-10.67-0.25a231.62 231.62 0 0 0-93.07 19.55A324.18 324.18 0 0 0 531.53 177a207.17 207.17 0 0 1 235 137.46z" fill="#F5F536" p-id="4754"></path><path d="M815.67 322.08a231.83 231.83 0 0 0-152.92 11.72 324.15 324.15 0 0 0-156.09-170.64c0.45-0.82 0.91-1.66 1.38-2.47a206 206 0 0 1 101.58-26.61c107.9 0 196.5 82.59 206.05 188z" fill="#F5F536" p-id="4755"></path><path d="M855.85 301.64a207.79 207.79 0 0 1-2.78 34 231.75 231.75 0 0 0-190.32-1.8 324.15 324.15 0 0 0-156.09-170.68 207.38 207.38 0 0 1 17-26.16A206 206 0 0 1 649 94.75c114.22 0 206.85 92.63 206.85 206.89z" fill="#F5F536" p-id="4756"></path><path d="M629 731.67H361.12a277.94 277.94 0 0 1-215.19-101.46A278.55 278.55 0 0 1 629 731.67zM811.8 723.05a185.3 185.3 0 0 1-56.11 8.62h-78a186 186 0 0 1 134.11-8.62z" fill="#0081FF" p-id="4757"></path><path d="M885.68 678.79q-4.38 4.28-9.1 8.31a185.65 185.65 0 0 1-120.89 44.57H361.12c-105.8 0.08-197.86-58.86-245.07-145.72a278.56 278.56 0 0 1 519.18 84.53c73.69-63.01 182.48-58.26 250.45 8.31z" fill="#0081FF" p-id="4758"></path><path d="M919.17 634.53a186 186 0 0 1-163.48 97.14H361.12c-122.94 0.09-227.33-79.5-264.34-190 37-110.34 141.15-189.89 264-190A278.49 278.49 0 0 1 635.23 582c77.93-66.66 195.14-57.5 261.8 20.44a186.84 186.84 0 0 1 22.14 32.09z" fill="#0081FF" p-id="4759"></path><path d="M755.69 731.67H361.12c-153.82 0.1-278.6-124.51-278.71-278.33s124.5-278.6 278.32-278.71a278.51 278.51 0 0 1 274.5 230.24c77.94-66.65 195.15-57.5 261.8 20.44s57.49 195.14-20.44 261.79a185.7 185.7 0 0 1-120.9 44.57z" fill="#0081FF" p-id="4760"></path><path d="M936.26 590.2a185.74 185.74 0 0 1-180.57 141.47H361.12c-138.82 0.1-254-101.4-275.21-234.27 21.2-132.7 136.14-234.14 274.83-234.24a278.52 278.52 0 0 1 274.49 230.25c77.93-66.65 195.14-57.5 261.8 20.43a185 185 0 0 1 39.23 76.36z" fill="#0081FF" p-id="4761"></path><path d="M936.26 590.2a185.74 185.74 0 0 1-180.57 141.47H361.12c-138.82 0.1-254-101.4-275.21-234.27 21.2-132.7 136.14-234.14 274.83-234.24a278.52 278.52 0 0 1 274.49 230.25c77.93-66.65 195.14-57.5 261.8 20.43a185 185 0 0 1 39.23 76.36z" fill="#3398FF" p-id="4762"></path><path d="M919.17 634.53a186 186 0 0 1-163.48 97.14H361.12c-122.94 0.09-227.33-79.5-264.34-190 37-110.34 141.15-189.89 264-190A278.49 278.49 0 0 1 635.23 582c77.93-66.66 195.14-57.5 261.8 20.44a186.84 186.84 0 0 1 22.14 32.09z" fill="#59ACFF" p-id="4763"></path><path d="M885.68 678.79q-4.38 4.28-9.1 8.31a185.65 185.65 0 0 1-120.89 44.57H361.12c-105.8 0.08-197.86-58.86-245.07-145.72a278.56 278.56 0 0 1 519.18 84.53c73.69-63.01 182.48-58.26 250.45 8.31z" fill="#83C7FF" p-id="4764"></path><path d="M629 731.67H361.12a277.94 277.94 0 0 1-215.19-101.46A278.55 278.55 0 0 1 629 731.67zM811.8 723.05a185.3 185.3 0 0 1-56.11 8.62h-78a186 186 0 0 1 134.11-8.62z" fill="#C0E3FF" p-id="4765"></path><path d="M895.18 262.31a206.06 206.06 0 0 1-18.59 85.83 231.78 231.78 0 0 0-213.84-14.34 324.15 324.15 0 0 0-156.09-170.64A206.81 206.81 0 0 1 688.28 55.42c114.27 0 206.9 92.63 206.9 206.89z" fill="#F5F536" p-id="4766"></path><path d="M855.85 301.64a207.79 207.79 0 0 1-2.78 34 231.75 231.75 0 0 0-190.32-1.8 324.15 324.15 0 0 0-156.09-170.68 207.38 207.38 0 0 1 17-26.16A206 206 0 0 1 649 94.75c114.22 0 206.85 92.63 206.85 206.89z" fill="#F9CE0A" p-id="4767"></path><path d="M815.67 322.08a231.83 231.83 0 0 0-152.92 11.72 324.15 324.15 0 0 0-156.09-170.64c0.45-0.82 0.91-1.66 1.38-2.47a206 206 0 0 1 101.58-26.61c107.9 0 196.5 82.59 206.05 188z" fill="#F5AF10" p-id="4768"></path><path d="M766.49 314.5c-3.54-0.17-7.11-0.25-10.67-0.25a231.62 231.62 0 0 0-93.07 19.55A324.18 324.18 0 0 0 531.53 177a207.17 207.17 0 0 1 235 137.46z" fill="#F08719" p-id="4769"></path><path d="M712.83 755.78v46.1a63 63 0 0 1-0.53 8.17 62.33 62.33 0 0 1-97 43.25z" fill="#0081FF" p-id="4770"></path><path d="M712.83 755.78V828a62.87 62.87 0 0 1-0.53 8.17 62.34 62.34 0 0 1-110.31 31 61 61 0 0 1 4.43-4.93z" fill="#0081FF" p-id="4771"></path><path d="M712.83 755.78v98.28a63 63 0 0 1-0.53 8.18 62.34 62.34 0 0 1-118.41 17.91 62.38 62.38 0 0 1 12.53-18z" fill="#0081FF" p-id="4772"></path><path d="M712.83 755.78v150.47a62.87 62.87 0 0 1-0.53 8.17 62.34 62.34 0 0 1-123.6 0 62.87 62.87 0 0 1-0.53-8.17 62.18 62.18 0 0 1 18.25-44.07z" fill="#0081FF" p-id="4773"></path><path d="M712.83 755.78v124.37a63 63 0 0 1-0.53 8.18 62.33 62.33 0 0 1-122.75 4.85 62.15 62.15 0 0 1 16.87-31z" fill="#0081FF" p-id="4774"></path><path d="M712.83 755.78v124.37a63 63 0 0 1-0.53 8.18 62.33 62.33 0 0 1-122.75 4.85 62.15 62.15 0 0 1 16.87-31z" fill="#3398FF" p-id="4775"></path><path d="M712.83 755.78v98.28a63 63 0 0 1-0.53 8.18 62.34 62.34 0 0 1-118.41 17.91 62.38 62.38 0 0 1 12.53-18z" fill="#59ACFF" p-id="4776"></path><path d="M712.83 755.78V828a62.87 62.87 0 0 1-0.53 8.17 62.34 62.34 0 0 1-110.31 31 61 61 0 0 1 4.43-4.93z" fill="#83C7FF" p-id="4777"></path><path d="M712.83 755.78v46.1a63 63 0 0 1-0.53 8.17 62.33 62.33 0 0 1-97 43.25z" fill="#C0E3FF" p-id="4778"></path><path d="M407.49 755.78v46.1a64.8 64.8 0 0 1-0.53 8.17 62.33 62.33 0 0 1-97 43.25z" fill="#0081FF" p-id="4779"></path><path d="M407.49 755.78V828a64.68 64.68 0 0 1-0.53 8.17 62.34 62.34 0 0 1-110.31 31 57.48 57.48 0 0 1 4.43-4.93z" fill="#0081FF" p-id="4780"></path><path d="M407.49 755.78v98.28a64.84 64.84 0 0 1-0.53 8.18 62.34 62.34 0 0 1-118.42 17.91 62.61 62.61 0 0 1 12.54-18z" fill="#0081FF" p-id="4781"></path><path d="M407.48 755.78v150.47a61.16 61.16 0 0 1-0.53 8.17 62.34 62.34 0 0 1-123.59 0 61.16 61.16 0 0 1-0.53-8.17 62.14 62.14 0 0 1 18.25-44.07z" fill="#0081FF" p-id="4782"></path><path d="M407.49 755.78v124.37a64.84 64.84 0 0 1-0.53 8.18 62.34 62.34 0 0 1-122.76 4.85 62.16 62.16 0 0 1 16.88-31z" fill="#0081FF" p-id="4783"></path><path d="M407.49 755.78v124.37a64.84 64.84 0 0 1-0.53 8.18 62.34 62.34 0 0 1-122.76 4.85 62.16 62.16 0 0 1 16.88-31z" fill="#3398FF" p-id="4784"></path><path d="M407.49 755.78v98.28a64.84 64.84 0 0 1-0.53 8.18 62.34 62.34 0 0 1-118.42 17.91 62.61 62.61 0 0 1 12.54-18z" fill="#59ACFF" p-id="4785"></path><path d="M407.49 755.78V828a64.68 64.68 0 0 1-0.53 8.17 62.34 62.34 0 0 1-110.31 31 57.48 57.48 0 0 1 4.43-4.93z" fill="#83C7FF" p-id="4786"></path><path d="M407.49 755.78v46.1a64.8 64.8 0 0 1-0.53 8.17 62.33 62.33 0 0 1-97 43.25z" fill="#C0E3FF" p-id="4787"></path></svg>