<?xml version="1.0" standalone="no"?><!DOCTYPE svg PUBLIC "-//W3C//DTD SVG 1.1//EN" "http://www.w3.org/Graphics/SVG/1.1/DTD/svg11.dtd"><svg t="1778824803589" class="icon" viewBox="0 0 1024 1024" version="1.1" xmlns="http://www.w3.org/2000/svg" p-id="3979" xmlns:xlink="http://www.w3.org/1999/xlink" width="200" height="200"><path d="M629 669.54H361.13A277.9 277.9 0 0 1 146 568.09a278.52 278.52 0 0 1 483 101.45zM811.77 660.92a185.26 185.26 0 0 1-56.11 8.62h-78a186 186 0 0 1 134.11-8.62z" fill="#0081FF" p-id="3980"></path><path d="M885.65 616.67c-2.93 2.84-6 5.62-9.1 8.31a185.69 185.69 0 0 1-120.89 44.56H361.13c-105.78 0.08-197.84-58.85-245-145.7a278.53 278.53 0 0 1 519.13 84.52 185.7 185.7 0 0 1 250.39 8.31z" fill="#0081FF" p-id="3981"></path><path d="M919.13 572.41a185.9 185.9 0 0 1-163.47 97.13H361.13c-122.92 0.09-227.3-79.49-264.31-190C133.79 369.24 238 289.7 360.75 289.62a278.45 278.45 0 0 1 274.46 230.22c77.93-66.65 195.13-57.5 261.78 20.43a186.84 186.84 0 0 1 22.14 32.14z" fill="#0081FF" p-id="3982"></path><path d="M755.66 669.54H361.13c-153.8 0.11-278.57-124.49-278.68-278.3s124.49-278.58 278.3-278.68a278.48 278.48 0 0 1 274.47 230.22c77.93-66.65 195.12-57.5 261.77 20.43S954.48 558.34 876.55 625a185.69 185.69 0 0 1-120.89 44.54z" fill="#0081FF" p-id="3983"></path><path d="M936.22 528.09a185.7 185.7 0 0 1-180.56 141.45H361.13c-138.8 0.1-254-101.39-275.18-234.24 21.2-132.69 136.13-234.12 274.8-234.22A278.48 278.48 0 0 1 635.21 431.3c77.93-66.64 195.13-57.49 261.78 20.44a184.9 184.9 0 0 1 39.23 76.35z" fill="#0081FF" p-id="3984"></path><path d="M936.22 528.09a185.7 185.7 0 0 1-180.56 141.45H361.13c-138.8 0.1-254-101.39-275.18-234.24 21.2-132.69 136.13-234.12 274.8-234.22A278.48 278.48 0 0 1 635.21 431.3c77.93-66.64 195.13-57.49 261.78 20.44a184.9 184.9 0 0 1 39.23 76.35z" fill="#3398FF" p-id="3985"></path><path d="M919.13 572.41a185.9 185.9 0 0 1-163.47 97.13H361.13c-122.92 0.09-227.3-79.49-264.31-190C133.79 369.24 238 289.7 360.75 289.62a278.45 278.45 0 0 1 274.46 230.22c77.93-66.65 195.13-57.5 261.78 20.43a186.84 186.84 0 0 1 22.14 32.14z" fill="#59ACFF" p-id="3986"></path><path d="M885.65 616.67c-2.93 2.84-6 5.62-9.1 8.31a185.69 185.69 0 0 1-120.89 44.56H361.13c-105.78 0.08-197.84-58.85-245-145.7a278.53 278.53 0 0 1 519.13 84.52 185.7 185.7 0 0 1 250.39 8.31z" fill="#83C7FF" p-id="3987"></path><path d="M629 669.54H361.13A277.9 277.9 0 0 1 146 568.09a278.52 278.52 0 0 1 483 101.45zM811.77 660.92a185.26 185.26 0 0 1-56.11 8.62h-78a186 186 0 0 1 134.11-8.62z" fill="#C0E3FF" p-id="3988"></path></svg>