<?xml version="1.0" standalone="no"?><!DOCTYPE svg PUBLIC "-//W3C//DTD SVG 1.1//EN" "http://www.w3.org/Graphics/SVG/1.1/DTD/svg11.dtd"><svg t="1778824795878" class="icon" viewBox="0 0 1024 1024" version="1.1" xmlns="http://www.w3.org/2000/svg" p-id="3534" xmlns:xlink="http://www.w3.org/1999/xlink" width="200" height="200"><path d="M832.52 512.61m0 32.92l0 0.01q0 32.92-32.92 32.92l-701.03 0q-32.92 0-32.92-32.92l0-0.01q0-32.92 32.92-32.92l701.03 0q32.92 0 32.92 32.92Z" fill="#C0E3FF" p-id="3535"></path><path d="M832.52 512.62m0 32.92l0 0.01q0 32.92-32.92 32.92l-575.83 0q-32.92 0-32.92-32.92l0-0.01q0-32.92 32.92-32.92l575.83 0q32.92 0 32.92 32.92Z" fill="#83C7FF" p-id="3536"></path><path d="M832.53 512.61m0 32.92l0 0.01q0 32.92-32.92 32.92l-450.63 0q-32.92 0-32.92-32.92l0-0.01q0-32.92 32.92-32.92l450.63 0q32.92 0 32.92 32.92Z" fill="#59ACFF" p-id="3537"></path><path d="M832.53 512.61m0 32.92l0 0.01q0 32.92-32.92 32.92l-325.42 0q-32.92 0-32.92-32.92l0-0.01q0-32.92 32.92-32.92l325.42 0q32.92 0 32.92 32.92Z" fill="#3398FF" p-id="3538"></path><path d="M832.52 512.61m0 32.92l0 0.01q0 32.92-32.92 32.92l-200.22 0q-32.92 0-32.92-32.92l0-0.01q0-32.92 32.92-32.92l200.22 0q32.92 0 32.92 32.92Z" fill="#0081FF" p-id="3539"></path><path d="M801.08 578.42h-2.8c0.94 0.04 1.87 0.03 2.8 0z" fill="#0081FF" p-id="3540"></path><path d="M758.36 665.94m-41.52 0a41.52 41.52 0 1 0 83.04 0 41.52 41.52 0 1 0-83.04 0Z" fill="#0081FF" p-id="3541"></path><path d="M788.18 637.05a41.53 41.53 0 0 1-59.65 0 41.53 41.53 0 0 1 59.65 0z" fill="#0081FF" p-id="3542"></path><path d="M793.78 644.27a41.52 41.52 0 0 1-70.85 0 41.54 41.54 0 0 1 70.85 0z" fill="#0081FF" p-id="3543"></path><path d="M797.29 651.5a41.54 41.54 0 0 1-77.87 0 41.53 41.53 0 0 1 77.87 0z" fill="#0081FF" p-id="3544"></path><path d="M799.25 658.72a41.53 41.53 0 0 1-81.79 0 41.53 41.53 0 0 1 81.79 0z" fill="#0081FF" p-id="3545"></path><path d="M799.25 658.72a41.53 41.53 0 0 1-81.79 0 41.53 41.53 0 0 1 81.79 0z" fill="#3398FF" p-id="3546"></path><path d="M797.29 651.5a41.54 41.54 0 0 1-77.87 0 41.53 41.53 0 0 1 77.87 0z" fill="#59ACFF" p-id="3547"></path><path d="M793.78 644.27a41.52 41.52 0 0 1-70.85 0 41.54 41.54 0 0 1 70.85 0z" fill="#83C7FF" p-id="3548"></path><path d="M788.18 637.05a41.53 41.53 0 0 1-59.65 0 41.53 41.53 0 0 1 59.65 0z" fill="#C0E3FF" p-id="3549"></path><path d="M877.9 763.3m-41.52 0a41.52 41.52 0 1 0 83.04 0 41.52 41.52 0 1 0-83.04 0Z" fill="#0081FF" p-id="3550"></path><path d="M907.73 734.41a41.51 41.51 0 0 1-59.65 0 41.53 41.53 0 0 1 59.65 0z" fill="#0081FF" p-id="3551"></path><path d="M913.33 741.64a41.54 41.54 0 0 1-70.85 0 41.52 41.52 0 0 1 70.85 0z" fill="#0081FF" p-id="3552"></path><path d="M916.83 748.86a41.53 41.53 0 0 1-77.86 0 41.52 41.52 0 0 1 77.86 0z" fill="#0081FF" p-id="3553"></path><path d="M918.8 756.08a41.53 41.53 0 0 1-81.79 0 41.53 41.53 0 0 1 81.79 0z" fill="#0081FF" p-id="3554"></path><path d="M918.8 756.08a41.53 41.53 0 0 1-81.79 0 41.53 41.53 0 0 1 81.79 0z" fill="#3398FF" p-id="3555"></path><path d="M916.83 748.86a41.53 41.53 0 0 1-77.86 0 41.52 41.52 0 0 1 77.86 0z" fill="#59ACFF" p-id="3556"></path><path d="M913.33 741.64a41.54 41.54 0 0 1-70.85 0 41.52 41.52 0 0 1 70.85 0z" fill="#83C7FF" p-id="3557"></path><path d="M907.73 734.41a41.51 41.51 0 0 1-59.65 0 41.53 41.53 0 0 1 59.65 0z" fill="#C0E3FF" p-id="3558"></path><path d="M916.83 312.06m-41.52 0a41.52 41.52 0 1 0 83.04 0 41.52 41.52 0 1 0-83.04 0Z" fill="#0081FF" p-id="3559"></path><path d="M946.66 283.17a41.53 41.53 0 0 1-59.65 0 41.53 41.53 0 0 1 59.65 0z" fill="#0081FF" p-id="3560"></path><path d="M952.26 290.39a41.54 41.54 0 0 1-70.85 0 41.54 41.54 0 0 1 70.85 0z" fill="#0081FF" p-id="3561"></path><path d="M955.76 297.61a41.52 41.52 0 0 1-77.86 0 41.53 41.53 0 0 1 77.86 0z" fill="#0081FF" p-id="3562"></path><path d="M957.73 304.83a41.53 41.53 0 0 1-81.79 0 41.53 41.53 0 0 1 81.79 0z" fill="#0081FF" p-id="3563"></path><path d="M957.73 304.83a41.53 41.53 0 0 1-81.79 0 41.53 41.53 0 0 1 81.79 0z" fill="#3398FF" p-id="3564"></path><path d="M955.76 297.61a41.52 41.52 0 0 1-77.86 0 41.53 41.53 0 0 1 77.86 0z" fill="#59ACFF" p-id="3565"></path><path d="M952.26 290.39a41.54 41.54 0 0 1-70.85 0 41.54 41.54 0 0 1 70.85 0z" fill="#83C7FF" p-id="3566"></path><path d="M946.66 283.17a41.53 41.53 0 0 1-59.65 0 41.53 41.53 0 0 1 59.65 0z" fill="#C0E3FF" p-id="3567"></path><path d="M441.26 166.69m-41.52 0a41.52 41.52 0 1 0 83.04 0 41.52 41.52 0 1 0-83.04 0Z" fill="#0081FF" p-id="3568"></path><path d="M471.09 137.8a41.51 41.51 0 0 1-59.65 0 41.53 41.53 0 0 1 59.65 0z" fill="#0081FF" p-id="3569"></path><path d="M476.69 145a41.54 41.54 0 0 1-70.85 0 41.52 41.52 0 0 1 70.85 0z" fill="#0081FF" p-id="3570"></path><path d="M480.19 152.25a41.53 41.53 0 0 1-77.86 0 41.52 41.52 0 0 1 77.86 0z" fill="#0081FF" p-id="3571"></path><path d="M482.16 159.47a41.53 41.53 0 0 1-81.79 0 41.53 41.53 0 0 1 81.79 0z" fill="#0081FF" p-id="3572"></path><path d="M482.16 159.47a41.53 41.53 0 0 1-81.79 0 41.53 41.53 0 0 1 81.79 0z" fill="#3398FF" p-id="3573"></path><path d="M480.19 152.25a41.53 41.53 0 0 1-77.86 0 41.52 41.52 0 0 1 77.86 0z" fill="#59ACFF" p-id="3574"></path><path d="M476.69 145a41.54 41.54 0 0 1-70.85 0 41.52 41.52 0 0 1 70.85 0z" fill="#83C7FF" p-id="3575"></path><path d="M471.09 137.8a41.51 41.51 0 0 1-59.65 0 41.53 41.53 0 0 1 59.65 0z" fill="#C0E3FF" p-id="3576"></path><path d="M747.67 222.65m-24.37 0a24.37 24.37 0 1 0 48.74 0 24.37 24.37 0 1 0-48.74 0Z" fill="#0081FF" p-id="3577"></path><path d="M765.18 205.7a24.38 24.38 0 0 1-35 0 24.36 24.36 0 0 1 35 0z" fill="#0081FF" p-id="3578"></path><path d="M768.47 209.94a24.38 24.38 0 0 1-41.59 0 24.37 24.37 0 0 1 41.59 0z" fill="#0081FF" p-id="3579"></path><path d="M770.53 214.18a24.38 24.38 0 0 1-45.71 0 24.38 24.38 0 0 1 45.71 0z" fill="#0081FF" p-id="3580"></path><path d="M771.68 218.41a24.38 24.38 0 0 1-48 0 24.38 24.38 0 0 1 48 0z" fill="#0081FF" p-id="3581"></path><path d="M771.68 218.41a24.38 24.38 0 0 1-48 0 24.38 24.38 0 0 1 48 0z" fill="#3398FF" p-id="3582"></path><path d="M770.53 214.18a24.38 24.38 0 0 1-45.71 0 24.38 24.38 0 0 1 45.71 0z" fill="#59ACFF" p-id="3583"></path><path d="M768.47 209.94a24.38 24.38 0 0 1-41.59 0 24.37 24.37 0 0 1 41.59 0z" fill="#83C7FF" p-id="3584"></path><path d="M765.18 205.7a24.38 24.38 0 0 1-35 0 24.36 24.36 0 0 1 35 0z" fill="#C0E3FF" p-id="3585"></path><path d="M907.73 598.88m-24.37 0a24.37 24.37 0 1 0 48.74 0 24.37 24.37 0 1 0-48.74 0Z" fill="#0081FF" p-id="3586"></path><path d="M925.23 581.92a24.36 24.36 0 0 1-35 0 24.38 24.38 0 0 1 35 0z" fill="#0081FF" p-id="3587"></path><path d="M928.52 586.16a24.37 24.37 0 0 1-41.59 0 24.38 24.38 0 0 1 41.59 0z" fill="#0081FF" p-id="3588"></path><path d="M930.58 590.4a24.38 24.38 0 0 1-45.71 0 24.38 24.38 0 0 1 45.71 0z" fill="#0081FF" p-id="3589"></path><path d="M931.73 594.64a24.38 24.38 0 0 1-48 0 24.38 24.38 0 0 1 48 0z" fill="#0081FF" p-id="3590"></path><path d="M931.73 594.64a24.38 24.38 0 0 1-48 0 24.38 24.38 0 0 1 48 0z" fill="#3398FF" p-id="3591"></path><path d="M930.58 590.4a24.38 24.38 0 0 1-45.71 0 24.38 24.38 0 0 1 45.71 0z" fill="#59ACFF" p-id="3592"></path><path d="M928.52 586.16a24.37 24.37 0 0 1-41.59 0 24.38 24.38 0 0 1 41.59 0z" fill="#83C7FF" p-id="3593"></path><path d="M925.23 581.92a24.36 24.36 0 0 1-35 0 24.38 24.38 0 0 1 35 0z" fill="#C0E3FF" p-id="3594"></path><path d="M730.17 419.83m-24.37 0a24.37 24.37 0 1 0 48.74 0 24.37 24.37 0 1 0-48.74 0Z" fill="#0081FF" p-id="3595"></path><path d="M747.67 402.87a24.36 24.36 0 0 1-35 0 24.38 24.38 0 0 1 35 0z" fill="#0081FF" p-id="3596"></path><path d="M751 407.11a24.38 24.38 0 0 1-41.59 0 24.38 24.38 0 0 1 41.59 0z" fill="#0081FF" p-id="3597"></path><path d="M753 411.35a24.37 24.37 0 0 1-45.7 0 24.37 24.37 0 0 1 45.7 0z" fill="#0081FF" p-id="3598"></path><path d="M754.17 415.59a24.38 24.38 0 0 1-48 0 24.38 24.38 0 0 1 48 0z" fill="#0081FF" p-id="3599"></path><path d="M754.17 415.59a24.38 24.38 0 0 1-48 0 24.38 24.38 0 0 1 48 0z" fill="#3398FF" p-id="3600"></path><path d="M753 411.35a24.37 24.37 0 0 1-45.7 0 24.37 24.37 0 0 1 45.7 0z" fill="#59ACFF" p-id="3601"></path><path d="M751 407.11a24.38 24.38 0 0 1-41.59 0 24.38 24.38 0 0 1 41.59 0z" fill="#83C7FF" p-id="3602"></path><path d="M747.67 402.87a24.36 24.36 0 0 1-35 0 24.38 24.38 0 0 1 35 0z" fill="#C0E3FF" p-id="3603"></path><path d="M429.1 838.78m-24.37 0a24.37 24.37 0 1 0 48.74 0 24.37 24.37 0 1 0-48.74 0Z" fill="#0081FF" p-id="3604"></path><path d="M446.61 821.82a24.37 24.37 0 0 1-35 0 24.39 24.39 0 0 1 35 0z" fill="#0081FF" p-id="3605"></path><path d="M449.9 826.06a24.38 24.38 0 0 1-41.59 0 24.38 24.38 0 0 1 41.59 0z" fill="#0081FF" p-id="3606"></path><path d="M452 830.3a24.37 24.37 0 0 1-45.7 0 24.37 24.37 0 0 1 45.7 0z" fill="#0081FF" p-id="3607"></path><path d="M453.11 834.54a24.38 24.38 0 0 1-48 0 24.38 24.38 0 0 1 48 0z" fill="#0081FF" p-id="3608"></path><path d="M453.11 834.54a24.38 24.38 0 0 1-48 0 24.38 24.38 0 0 1 48 0z" fill="#3398FF" p-id="3609"></path><path d="M452 830.3a24.37 24.37 0 0 1-45.7 0 24.37 24.37 0 0 1 45.7 0z" fill="#59ACFF" p-id="3610"></path><path d="M449.9 826.06a24.38 24.38 0 0 1-41.59 0 24.38 24.38 0 0 1 41.59 0z" fill="#83C7FF" p-id="3611"></path><path d="M446.61 821.82a24.37 24.37 0 0 1-35 0 24.39 24.39 0 0 1 35 0z" fill="#C0E3FF" p-id="3612"></path><path d="M754.54 851.41m-24.37 0a24.37 24.37 0 1 0 48.74 0 24.37 24.37 0 1 0-48.74 0Z" fill="#0081FF" p-id="3613"></path><path d="M772 834.45a24.36 24.36 0 0 1-35 0 24.38 24.38 0 0 1 35 0z" fill="#0081FF" p-id="3614"></path><path d="M775.33 838.69a24.38 24.38 0 0 1-41.59 0 24.38 24.38 0 0 1 41.59 0z" fill="#0081FF" p-id="3615"></path><path d="M777.39 842.93a24.37 24.37 0 0 1-45.7 0 24.37 24.37 0 0 1 45.7 0z" fill="#0081FF" p-id="3616"></path><path d="M778.54 847.17a24.38 24.38 0 0 1-48 0 24.38 24.38 0 0 1 48 0z" fill="#0081FF" p-id="3617"></path><path d="M778.54 847.17a24.38 24.38 0 0 1-48 0 24.38 24.38 0 0 1 48 0z" fill="#3398FF" p-id="3618"></path><path d="M777.39 842.93a24.37 24.37 0 0 1-45.7 0 24.37 24.37 0 0 1 45.7 0z" fill="#59ACFF" p-id="3619"></path><path d="M775.33 838.69a24.38 24.38 0 0 1-41.59 0 24.38 24.38 0 0 1 41.59 0z" fill="#83C7FF" p-id="3620"></path><path d="M772 834.45a24.36 24.36 0 0 1-35 0 24.38 24.38 0 0 1 35 0z" fill="#C0E3FF" p-id="3621"></path><path d="M579.94 363.58m0 32.92l0 0.01q0 32.92-32.92 32.92l-382.12 0q-32.92 0-32.92-32.92l0-0.01q0-32.92 32.92-32.92l382.12 0q32.92 0 32.92 32.92Z" fill="#C0E3FF" p-id="3622"></path><path d="M579.94 363.58m0 32.92l0 0.01q0 32.92-32.92 32.92l-308.99 0q-32.92 0-32.92-32.92l0-0.01q0-32.92 32.92-32.92l308.99 0q32.92 0 32.92 32.92Z" fill="#83C7FF" p-id="3623"></path><path d="M579.94 363.58m0 32.92l0 0.01q0 32.92-32.92 32.92l-235.85 0q-32.92 0-32.92-32.92l0-0.01q0-32.92 32.92-32.92l235.85 0q32.92 0 32.92 32.92Z" fill="#59ACFF" p-id="3624"></path><path d="M579.95 363.58m0 32.92l0 0.01q0 32.92-32.92 32.92l-162.71 0q-32.92 0-32.92-32.92l0-0.01q0-32.92 32.92-32.92l162.71 0q32.92 0 32.92 32.92Z" fill="#3398FF" p-id="3625"></path><path d="M579.95 363.57m0 32.92l0 0.01q0 32.92-32.92 32.92l-89.58 0q-32.92 0-32.92-32.92l0-0.01q0-32.92 32.92-32.92l89.58 0q32.92 0 32.92 32.92Z" fill="#0081FF" p-id="3626"></path><path d="M715.16 305.28A124.13 124.13 0 0 1 594 429.38h-50a32.93 32.93 0 1 1 0-65.85h47a58.29 58.29 0 1 0-51.91-84.82A32.94 32.94 0 0 1 480 249.62c0-0.06 0.05-0.11 0.09-0.17 0.21-0.44 0.42-0.88 0.66-1.29a124.15 124.15 0 0 1 234.38 57.12z" fill="#3398FF" p-id="3627"></path><path d="M715.16 305.28a123.81 123.81 0 0 1-41 92.23c-0.32 0.3-0.66 0.61-1 0.88A32.93 32.93 0 0 1 629.54 349a58.29 58.29 0 1 0-90.44-70.27 32.94 32.94 0 0 1-59.14-29c0.26-0.55 0.54-1.09 0.84-1.63a124.15 124.15 0 0 1 234.36 57.15z" fill="#59ACFF" p-id="3628"></path><path d="M711.11 278.31a32.93 32.93 0 0 1-64.37 9.8 1 1 0 0 1-0.06-0.16 58.31 58.31 0 0 0-107.58-9.2 32.94 32.94 0 0 1-59.14-29c0.26-0.55 0.54-1.09 0.84-1.63a124.17 124.17 0 0 1 228.82 20.4 32.58 32.58 0 0 1 1.49 9.79z" fill="#83C7FF" p-id="3629"></path><path d="M625.11 214.08A32.92 32.92 0 0 1 592.18 247H588.9l-1.36 0.07c-0.35 0-0.69 0-1 0.07h-0.15c-0.55 0-1.09 0.08-1.65 0.15s-1.16 0.14-1.73 0.22c-1.25 0.16-2.5 0.38-3.73 0.63l-1 0.22c-0.3 0-0.58 0.12-0.88 0.2l-0.93 0.23-0.47 0.21-1.24 0.35c-0.68 0.19-1.35 0.41-2 0.63s-1.2 0.4-1.8 0.63l-1.43 0.56c-0.34 0.12-0.68 0.25-1 0.4a3.68 3.68 0 0 0-0.35 0.15c-0.37 0.15-0.73 0.31-1.08 0.47-0.56 0.25-1.1 0.5-1.64 0.77s-0.91 0.45-1.35 0.68c-1.14 0.59-2.25 1.23-3.34 1.91-0.36 0.21-0.73 0.44-1.09 0.67-0.79 0.5-1.57 1-2.33 1.57-0.43 0.3-0.85 0.61-1.27 0.93s-1.07 0.81-1.58 1.25-1.12 0.91-1.68 1.39c-0.31 0.27-0.62 0.54-0.92 0.82-0.62 0.56-1.24 1.14-1.84 1.75a58.29 58.29 0 0 0-9 11.4c-0.28 0.46-0.55 0.94-0.81 1.41-0.16 0.27-0.31 0.53-0.44 0.8-0.25 0.42-0.46 0.84-0.68 1.26a32.94 32.94 0 0 1-59.14-29c0.26-0.55 0.54-1.09 0.84-1.63 0.65-1.25 1.31-2.48 2-3.69 0.34-0.61 0.69-1.22 1-1.83 0.7-1.2 1.43-2.39 2.18-3.57l1.13-1.77a0.35 0.35 0 0 0 0.08-0.13c1.52-2.29 3.08-4.52 4.73-6.69a125.22 125.22 0 0 1 18.55-19.67c3.18-2.7 6.49-5.26 9.92-7.64 0.6-0.4 1.19-0.81 1.8-1.23q2.55-1.68 5.18-3.27a0.24 0.24 0 0 0 0.12-0.07c1.78-1 3.58-2.06 5.42-3l1.93-1c2.48-1.25 5-2.43 7.59-3.53 3.25-1.38 6.58-2.64 10-3.74 1.34-0.44 2.68-0.86 4-1.25 3.42-1 6.91-1.84 10.45-2.53l1.35-0.25a124.34 124.34 0 0 1 22.74-2.17h3.2-0.92a32.91 32.91 0 0 1 31.83 32.94z" fill="#C0E3FF" p-id="3630"></path><path d="M131.98 716.39m0-32.92l0-0.01q0-32.92 32.92-32.92l382.12 0q32.92 0 32.92 32.92l0 0.01q0 32.92-32.92 32.92l-382.12 0q-32.92 0-32.92-32.92Z" fill="#C0E3FF" p-id="3631"></path><path d="M205.12 716.39m0-32.92l0-0.01q0-32.92 32.92-32.92l308.99 0q32.92 0 32.92 32.92l0 0.01q0 32.92-32.92 32.92l-308.99 0q-32.92 0-32.92-32.92Z" fill="#83C7FF" p-id="3632"></path><path d="M278.26 716.38m0-32.92l0-0.01q0-32.92 32.92-32.92l235.85 0q32.92 0 32.92 32.92l0 0.01q0 32.92-32.92 32.92l-235.85 0q-32.92 0-32.92-32.92Z" fill="#59ACFF" p-id="3633"></path><path d="M351.4 716.38m0-32.92l0-0.01q0-32.92 32.92-32.92l162.71 0q32.92 0 32.92 32.92l0 0.01q0 32.92-32.92 32.92l-162.71 0q-32.92 0-32.92-32.92Z" fill="#3398FF" p-id="3634"></path><path d="M424.53 716.39m0-32.92l0-0.01q0-32.92 32.92-32.92l89.58 0q32.92 0 32.92 32.92l0 0.01q0 32.92-32.92 32.92l-89.58 0q-32.92 0-32.92-32.92Z" fill="#0081FF" p-id="3635"></path><path d="M715.16 774.68A124.14 124.14 0 0 0 594 650.58h-50a32.93 32.93 0 1 0 0 65.86h47a58.29 58.29 0 1 1-51.91 84.82A32.94 32.94 0 0 0 480 830.35s0.05 0.11 0.09 0.16c0.21 0.45 0.42 0.88 0.66 1.3a124.15 124.15 0 0 0 234.38-57.13z" fill="#3398FF" p-id="3636"></path><path d="M715.16 774.68a123.83 123.83 0 0 0-41-92.23c-0.32-0.29-0.66-0.6-1-0.87a32.92 32.92 0 0 0-43.57 49.36 58.29 58.29 0 1 1-90.44 70.28 32.93 32.93 0 0 0-59.14 29c0.26 0.55 0.54 1.09 0.84 1.64a124.15 124.15 0 0 0 234.36-57.16z" fill="#59ACFF" p-id="3637"></path><path d="M711.11 801.65a32.93 32.93 0 0 0-64.37-9.8 1 1 0 0 0-0.06 0.16 58.31 58.31 0 0 1-107.58 9.21 32.93 32.93 0 0 0-59.14 29c0.26 0.55 0.54 1.09 0.84 1.64a124.17 124.17 0 0 0 228.82-20.4 32.59 32.59 0 0 0 1.49-9.81z" fill="#83C7FF" p-id="3638"></path><path d="M625.11 865.89A32.92 32.92 0 0 0 592.18 833h-3.26c-0.46 0-0.91 0-1.36-0.07s-0.69 0-1-0.06a0.36 0.36 0 0 1-0.15 0c-0.55 0-1.09-0.08-1.65-0.15s-1.16-0.13-1.73-0.21c-1.25-0.17-2.5-0.38-3.73-0.64l-1-0.21c-0.3-0.06-0.58-0.13-0.88-0.21l-0.93-0.23-0.49-0.22-1.24-0.35c-0.68-0.19-1.35-0.41-2-0.62s-1.2-0.41-1.8-0.64-1-0.36-1.43-0.55-0.68-0.26-1-0.41a2.17 2.17 0 0 1-0.35-0.15c-0.37-0.14-0.73-0.31-1.08-0.47-0.56-0.24-1.1-0.5-1.64-0.77s-0.91-0.45-1.35-0.68c-1.14-0.59-2.25-1.23-3.34-1.9l-1.09-0.68c-0.79-0.5-1.57-1-2.33-1.57-0.43-0.29-0.85-0.6-1.27-0.93s-1.07-0.81-1.58-1.24-1.12-0.92-1.68-1.39c-0.31-0.27-0.62-0.54-0.92-0.83-0.62-0.55-1.24-1.13-1.84-1.74a58.35 58.35 0 0 1-9-11.41q-0.42-0.69-0.81-1.41c-0.16-0.27-0.31-0.52-0.44-0.79-0.25-0.42-0.46-0.84-0.68-1.26a32.93 32.93 0 0 0-59.14 29c0.26 0.55 0.54 1.09 0.84 1.64 0.65 1.24 1.31 2.47 2 3.69l1 1.82c0.7 1.2 1.43 2.39 2.18 3.57l1.13 1.77a0.35 0.35 0 0 1 0.08 0.13c1.52 2.29 3.08 4.52 4.73 6.7a125.59 125.59 0 0 0 18.55 19.66q4.77 4.07 9.92 7.64l1.8 1.23c1.7 1.12 3.43 2.22 5.18 3.27a0.35 0.35 0 0 1 0.12 0.07c1.78 1.05 3.58 2.07 5.42 3l1.93 1c2.48 1.24 5 2.43 7.59 3.52 3.25 1.38 6.58 2.64 10 3.75 1.34 0.43 2.68 0.85 4 1.24q5.13 1.49 10.45 2.53l1.35 0.26a125.22 125.22 0 0 0 22.74 2.13h3.2-0.92a32.91 32.91 0 0 0 31.83-32.94z" fill="#C0E3FF" p-id="3639"></path><path d="M922.42 454.34a124.12 124.12 0 0 1-121.13 124.08h-0.21c-0.94 0-1.87 0.05-2.8 0.05h-62.06a32.93 32.93 0 0 1-0.57-65.85h62.63a58.3 58.3 0 0 0 0.15-116.62h-0.15a32.92 32.92 0 0 1 0-65.84h0.31a124.14 124.14 0 0 1 123.83 124.18z" fill="#3398FF" p-id="3640"></path><path d="M922.42 454.34a123.63 123.63 0 0 1-32.14 83.33c-0.16 0.2-0.35 0.39-0.54 0.59a32.92 32.92 0 0 1-48.65-44.37l0.34-0.37a58.3 58.3 0 0 0-43-97.49h-0.15a32.92 32.92 0 0 1 0-65.84h0.31a124.14 124.14 0 0 1 123.83 124.15z" fill="#59ACFF" p-id="3641"></path><path d="M907.27 404a32.7 32.7 0 0 1-8.27 21.79c-0.16 0.2-0.35 0.39-0.54 0.59a32.89 32.89 0 0 1-51.36-3.95l-0.44-0.64A58.23 58.23 0 0 0 798.43 396h-0.15a32.92 32.92 0 0 1 0-65.84h0.31a124 124 0 0 1 103.1 55.44 1.49 1.49 0 0 1 0.2 0.31 32.63 32.63 0 0 1 5.38 18.09z" fill="#83C7FF" p-id="3642"></path></svg>